<svg width="676" height="650" viewBox="0 0 676 650" fill="none" xmlns="http://www.w3.org/2000/svg">
<circle cx="341" cy="325" r="325" fill="#D9D9D9"/>
<g filter="url(#filter0_d_7_732)">
<rect x="478" y="35" width="194" height="53" rx="26.5" fill="white" shape-rendering="crispEdges"/>
<mask id="mask0_7_732" style="mask-type:alpha" maskUnits="userSpaceOnUse" x="503" y="49" width="24" height="25">
<rect x="503" y="49.5" width="24" height="24" fill="#D9D9D9"/>
</mask>
<g mask="url(#mask0_7_732)">
<path d="M505 69.5L515 53.5L525 69.5H505ZM508.6 67.5H521.4L515 57.25L508.6 67.5Z" fill="#1C1B1F"/>
</g>
<path d="M533.409 67V55.3636H534.818V60.5455H541.023V55.3636H542.432V67H541.023V61.7955H534.818V67H533.409ZM548.73 67.1818C547.889 67.1818 547.164 66.9962 546.554 66.625C545.948 66.25 545.48 65.7273 545.151 65.0568C544.825 64.3826 544.662 63.5985 544.662 62.7045C544.662 61.8106 544.825 61.0227 545.151 60.3409C545.48 59.6553 545.938 59.1212 546.526 58.7386C547.116 58.3523 547.806 58.1591 548.594 58.1591C549.048 58.1591 549.497 58.2348 549.94 58.3864C550.384 58.5379 550.787 58.7841 551.151 59.125C551.514 59.4621 551.804 59.9091 552.02 60.4659C552.236 61.0227 552.344 61.7083 552.344 62.5227V63.0909H545.616V61.9318H550.98C550.98 61.4394 550.882 61 550.685 60.6136C550.491 60.2273 550.215 59.9223 549.855 59.6989C549.499 59.4754 549.079 59.3636 548.594 59.3636C548.06 59.3636 547.598 59.4962 547.207 59.7614C546.821 60.0227 546.524 60.3636 546.315 60.7841C546.107 61.2045 546.003 61.6553 546.003 62.1364V62.9091C546.003 63.5682 546.116 64.1269 546.344 64.5852C546.575 65.0398 546.895 65.3864 547.304 65.625C547.713 65.8598 548.188 65.9773 548.73 65.9773C549.082 65.9773 549.401 65.928 549.685 65.8295C549.973 65.7273 550.221 65.5758 550.429 65.375C550.637 65.1705 550.798 64.9167 550.912 64.6136L552.207 64.9773C552.071 65.4167 551.842 65.803 551.52 66.1364C551.198 66.4659 550.8 66.7235 550.327 66.9091C549.853 67.0909 549.321 67.1818 548.73 67.1818ZM556.952 67.2045C556.399 67.2045 555.897 67.1004 555.446 66.892C554.995 66.6799 554.637 66.375 554.372 65.9773C554.107 65.5758 553.974 65.0909 553.974 64.5227C553.974 64.0227 554.073 63.6174 554.27 63.3068C554.467 62.9924 554.73 62.7462 555.06 62.5682C555.389 62.3902 555.753 62.2576 556.151 62.1705C556.552 62.0795 556.955 62.0076 557.361 61.9545C557.891 61.8864 558.321 61.8352 558.651 61.8011C558.984 61.7633 559.226 61.7008 559.378 61.6136C559.533 61.5265 559.611 61.375 559.611 61.1591V61.1136C559.611 60.553 559.457 60.1174 559.151 59.8068C558.848 59.4962 558.387 59.3409 557.77 59.3409C557.13 59.3409 556.628 59.4811 556.264 59.7614C555.901 60.0417 555.645 60.3409 555.497 60.6591L554.224 60.2045C554.452 59.6742 554.755 59.2614 555.134 58.9659C555.516 58.6667 555.933 58.4583 556.384 58.3409C556.838 58.2197 557.285 58.1591 557.724 58.1591C558.005 58.1591 558.327 58.1932 558.69 58.2614C559.058 58.3258 559.412 58.4602 559.753 58.6648C560.098 58.8693 560.384 59.178 560.611 59.5909C560.838 60.0038 560.952 60.5568 560.952 61.25V67H559.611V65.8182H559.543C559.452 66.0076 559.3 66.2102 559.088 66.4261C558.876 66.642 558.594 66.8258 558.241 66.9773C557.889 67.1288 557.459 67.2045 556.952 67.2045ZM557.156 66C557.687 66 558.134 65.8958 558.497 65.6875C558.865 65.4792 559.141 65.2102 559.327 64.8807C559.516 64.5511 559.611 64.2045 559.611 63.8409V62.6136C559.554 62.6818 559.429 62.7443 559.236 62.8011C559.046 62.8542 558.827 62.9015 558.577 62.9432C558.33 62.9811 558.09 63.0152 557.855 63.0455C557.624 63.072 557.437 63.0947 557.293 63.1136C556.944 63.1591 556.618 63.233 556.315 63.3352C556.016 63.4337 555.774 63.5833 555.588 63.7841C555.406 63.9811 555.315 64.25 555.315 64.5909C555.315 65.0568 555.488 65.4091 555.832 65.6477C556.181 65.8826 556.622 66 557.156 66ZM564.74 55.3636V67H563.399V55.3636H564.74ZM570.991 58.2727V59.4091H566.469V58.2727H570.991ZM567.787 56.1818H569.128V64.5C569.128 64.8788 569.183 65.1629 569.293 65.3523C569.406 65.5379 569.55 65.6629 569.724 65.7273C569.902 65.7879 570.09 65.8182 570.287 65.8182C570.435 65.8182 570.556 65.8106 570.651 65.7955C570.745 65.7765 570.821 65.7614 570.878 65.75L571.151 66.9545C571.06 66.9886 570.933 67.0227 570.77 67.0568C570.607 67.0947 570.401 67.1136 570.151 67.1136C569.772 67.1136 569.401 67.0322 569.037 66.8693C568.677 66.7064 568.378 66.4583 568.139 66.125C567.904 65.7917 567.787 65.3712 567.787 64.8636V56.1818ZM574.537 61.75V67H573.196V55.3636H574.537V59.6364H574.651C574.855 59.1856 575.162 58.8277 575.571 58.5625C575.984 58.2936 576.533 58.1591 577.219 58.1591C577.813 58.1591 578.334 58.2784 578.781 58.517C579.228 58.7519 579.575 59.1136 579.821 59.6023C580.071 60.0871 580.196 60.7045 580.196 61.4545V67H578.855V61.5455C578.855 60.8523 578.675 60.3163 578.315 59.9375C577.959 59.5549 577.465 59.3636 576.832 59.3636C576.393 59.3636 575.999 59.4564 575.651 59.642C575.306 59.8277 575.033 60.0985 574.832 60.4545C574.635 60.8106 574.537 61.2424 574.537 61.75ZM586.695 56.6136V55.3636H595.422V56.6136H591.763V67H590.354V56.6136H586.695ZM596.509 67V58.2727H597.804V59.5909H597.895C598.054 59.1591 598.342 58.8087 598.759 58.5398C599.175 58.2708 599.645 58.1364 600.168 58.1364C600.266 58.1364 600.389 58.1383 600.537 58.142C600.685 58.1458 600.796 58.1515 600.872 58.1591V59.5227C600.827 59.5114 600.723 59.4943 600.56 59.4716C600.401 59.4451 600.232 59.4318 600.054 59.4318C599.63 59.4318 599.251 59.5208 598.918 59.6989C598.588 59.8731 598.327 60.1155 598.134 60.4261C597.944 60.733 597.849 61.0833 597.849 61.4773V67H596.509ZM602.462 67V58.2727H603.803V67H602.462ZM603.143 56.8182C602.882 56.8182 602.657 56.7292 602.467 56.5511C602.282 56.3731 602.189 56.1591 602.189 55.9091C602.189 55.6591 602.282 55.4451 602.467 55.267C602.657 55.089 602.882 55 603.143 55C603.405 55 603.628 55.089 603.814 55.267C604.003 55.4451 604.098 55.6591 604.098 55.9091C604.098 56.1591 604.003 56.3731 603.814 56.5511C603.628 56.7292 603.405 56.8182 603.143 56.8182ZM608.827 67.2045C608.274 67.2045 607.772 67.1004 607.321 66.892C606.87 66.6799 606.512 66.375 606.247 65.9773C605.982 65.5758 605.849 65.0909 605.849 64.5227C605.849 64.0227 605.948 63.6174 606.145 63.3068C606.342 62.9924 606.605 62.7462 606.935 62.5682C607.264 62.3902 607.628 62.2576 608.026 62.1705C608.427 62.0795 608.83 62.0076 609.236 61.9545C609.766 61.8864 610.196 61.8352 610.526 61.8011C610.859 61.7633 611.101 61.7008 611.253 61.6136C611.408 61.5265 611.486 61.375 611.486 61.1591V61.1136C611.486 60.553 611.332 60.1174 611.026 59.8068C610.723 59.4962 610.262 59.3409 609.645 59.3409C609.005 59.3409 608.503 59.4811 608.139 59.7614C607.776 60.0417 607.52 60.3409 607.372 60.6591L606.099 60.2045C606.327 59.6742 606.63 59.2614 607.009 58.9659C607.391 58.6667 607.808 58.4583 608.259 58.3409C608.713 58.2197 609.16 58.1591 609.599 58.1591C609.88 58.1591 610.202 58.1932 610.565 58.2614C610.933 58.3258 611.287 58.4602 611.628 58.6648C611.973 58.8693 612.259 59.178 612.486 59.5909C612.713 60.0038 612.827 60.5568 612.827 61.25V67H611.486V65.8182H611.418C611.327 66.0076 611.175 66.2102 610.963 66.4261C610.751 66.642 610.469 66.8258 610.116 66.9773C609.764 67.1288 609.334 67.2045 608.827 67.2045ZM609.031 66C609.562 66 610.009 65.8958 610.372 65.6875C610.74 65.4792 611.016 65.2102 611.202 64.8807C611.391 64.5511 611.486 64.2045 611.486 63.8409V62.6136C611.429 62.6818 611.304 62.7443 611.111 62.8011C610.921 62.8542 610.702 62.9015 610.452 62.9432C610.205 62.9811 609.965 63.0152 609.73 63.0455C609.499 63.072 609.312 63.0947 609.168 63.1136C608.819 63.1591 608.493 63.233 608.19 63.3352C607.891 63.4337 607.649 63.5833 607.463 63.7841C607.281 63.9811 607.19 64.25 607.19 64.5909C607.19 65.0568 607.363 65.4091 607.707 65.6477C608.056 65.8826 608.497 66 609.031 66ZM616.615 61.75V67H615.274V58.2727H616.57V59.6364H616.683C616.888 59.1932 617.198 58.8371 617.615 58.5682C618.032 58.2955 618.57 58.1591 619.229 58.1591C619.82 58.1591 620.337 58.2803 620.78 58.5227C621.223 58.7614 621.568 59.125 621.814 59.6136C622.06 60.0985 622.183 60.7121 622.183 61.4545V67H620.842V61.5455C620.842 60.8598 620.664 60.3258 620.308 59.9432C619.952 59.5568 619.464 59.3636 618.842 59.3636C618.414 59.3636 618.032 59.4564 617.695 59.642C617.361 59.8277 617.098 60.0985 616.905 60.4545C616.712 60.8106 616.615 61.2424 616.615 61.75ZM628.156 70.4545C627.509 70.4545 626.952 70.3712 626.486 70.2045C626.02 70.0417 625.632 69.8258 625.321 69.5568C625.014 69.2917 624.77 69.0076 624.588 68.7045L625.656 67.9545C625.777 68.1136 625.931 68.2955 626.116 68.5C626.302 68.7083 626.556 68.8883 626.878 69.0398C627.204 69.1951 627.63 69.2727 628.156 69.2727C628.861 69.2727 629.442 69.1023 629.901 68.7614C630.359 68.4205 630.588 67.8864 630.588 67.1591V65.3864H630.474C630.376 65.5455 630.236 65.7424 630.054 65.9773C629.876 66.2083 629.618 66.4148 629.281 66.5966C628.948 66.7746 628.497 66.8636 627.929 66.8636C627.224 66.8636 626.592 66.697 626.031 66.3636C625.474 66.0303 625.033 65.5455 624.707 64.9091C624.385 64.2727 624.224 63.5 624.224 62.5909C624.224 61.697 624.382 60.9186 624.696 60.2557C625.01 59.589 625.448 59.0739 626.009 58.7102C626.569 58.3428 627.217 58.1591 627.952 58.1591C628.52 58.1591 628.971 58.2538 629.304 58.4432C629.641 58.6288 629.899 58.8409 630.077 59.0795C630.259 59.3144 630.399 59.5076 630.497 59.6591H630.634V58.2727H631.929V67.25C631.929 68 631.759 68.6098 631.418 69.0795C631.08 69.553 630.626 69.8996 630.054 70.1193C629.486 70.3428 628.853 70.4545 628.156 70.4545ZM628.111 65.6591C628.649 65.6591 629.103 65.536 629.474 65.2898C629.846 65.0436 630.128 64.6894 630.321 64.2273C630.514 63.7652 630.611 63.2121 630.611 62.5682C630.611 61.9394 630.516 61.3845 630.327 60.9034C630.137 60.4223 629.857 60.0455 629.486 59.7727C629.115 59.5 628.656 59.3636 628.111 59.3636C627.543 59.3636 627.069 59.5076 626.69 59.7955C626.315 60.0833 626.033 60.4697 625.844 60.9545C625.658 61.4394 625.565 61.9773 625.565 62.5682C625.565 63.1742 625.66 63.7102 625.849 64.1761C626.043 64.6383 626.327 65.0019 626.702 65.267C627.08 65.5284 627.55 65.6591 628.111 65.6591ZM635.724 55.3636V67H634.384V55.3636H635.724ZM641.839 67.1818C640.999 67.1818 640.273 66.9962 639.663 66.625C639.057 66.25 638.589 65.7273 638.26 65.0568C637.934 64.3826 637.771 63.5985 637.771 62.7045C637.771 61.8106 637.934 61.0227 638.26 60.3409C638.589 59.6553 639.048 59.1212 639.635 58.7386C640.226 58.3523 640.915 58.1591 641.703 58.1591C642.158 58.1591 642.607 58.2348 643.05 58.3864C643.493 58.5379 643.896 58.7841 644.26 59.125C644.624 59.4621 644.913 59.9091 645.129 60.4659C645.345 61.0227 645.453 61.7083 645.453 62.5227V63.0909H638.726V61.9318H644.089C644.089 61.4394 643.991 61 643.794 60.6136C643.601 60.2273 643.324 59.9223 642.964 59.6989C642.608 59.4754 642.188 59.3636 641.703 59.3636C641.169 59.3636 640.707 59.4962 640.317 59.7614C639.93 60.0227 639.633 60.3636 639.425 60.7841C639.216 61.2045 639.112 61.6553 639.112 62.1364V62.9091C639.112 63.5682 639.226 64.1269 639.453 64.5852C639.684 65.0398 640.004 65.3864 640.413 65.625C640.822 65.8598 641.298 65.9773 641.839 65.9773C642.192 65.9773 642.51 65.928 642.794 65.8295C643.082 65.7273 643.33 65.5758 643.538 65.375C643.747 65.1705 643.908 64.9167 644.021 64.6136L645.317 64.9773C645.18 65.4167 644.951 65.803 644.629 66.1364C644.307 66.4659 643.91 66.7235 643.436 66.9091C642.963 67.0909 642.43 67.1818 641.839 67.1818Z" fill="black"/>
</g>
<g filter="url(#filter1_d_7_732)">
<rect x="218" y="517" width="182" height="48" rx="24" fill="white" shape-rendering="crispEdges"/>
<mask id="mask1_7_732" style="mask-type:alpha" maskUnits="userSpaceOnUse" x="243" y="529" width="24" height="24">
<rect x="243" y="529" width="24" height="24" fill="#D9D9D9"/>
</mask>
<g mask="url(#mask1_7_732)">
<path d="M247 544C246.167 544 245.458 543.708 244.875 543.125C244.292 542.542 244 541.833 244 541C244 540.167 244.292 539.458 244.875 538.875C245.458 538.292 246.167 538 247 538V536C247 535.45 247.196 534.979 247.588 534.588C247.979 534.196 248.45 534 249 534H252C252 533.167 252.292 532.458 252.875 531.875C253.458 531.292 254.167 531 255 531C255.833 531 256.542 531.292 257.125 531.875C257.708 532.458 258 533.167 258 534H261C261.55 534 262.021 534.196 262.413 534.588C262.804 534.979 263 535.45 263 536V538C263.833 538 264.542 538.292 265.125 538.875C265.708 539.458 266 540.167 266 541C266 541.833 265.708 542.542 265.125 543.125C264.542 543.708 263.833 544 263 544V548C263 548.55 262.804 549.021 262.413 549.413C262.021 549.804 261.55 550 261 550H249C248.45 550 247.979 549.804 247.588 549.413C247.196 549.021 247 548.55 247 548V544ZM252 542C252.417 542 252.771 541.854 253.062 541.562C253.354 541.271 253.5 540.917 253.5 540.5C253.5 540.083 253.354 539.729 253.062 539.438C252.771 539.146 252.417 539 252 539C251.583 539 251.229 539.146 250.938 539.438C250.646 539.729 250.5 540.083 250.5 540.5C250.5 540.917 250.646 541.271 250.938 541.562C251.229 541.854 251.583 542 252 542ZM258 542C258.417 542 258.771 541.854 259.062 541.562C259.354 541.271 259.5 540.917 259.5 540.5C259.5 540.083 259.354 539.729 259.062 539.438C258.771 539.146 258.417 539 258 539C257.583 539 257.229 539.146 256.938 539.438C256.646 539.729 256.5 540.083 256.5 540.5C256.5 540.917 256.646 541.271 256.938 541.562C257.229 541.854 257.583 542 258 542ZM251 546H259V544H251V546ZM249 548H261V536H249V548Z" fill="#1C1B1F"/>
</g>
<path d="M273.886 534.864L277.341 544.659H277.477L280.932 534.864H282.409L278.136 546.5H276.682L272.409 534.864H273.886ZM284.04 546.5V537.773H285.381V546.5H284.04ZM284.722 536.318C284.46 536.318 284.235 536.229 284.045 536.051C283.86 535.873 283.767 535.659 283.767 535.409C283.767 535.159 283.86 534.945 284.045 534.767C284.235 534.589 284.46 534.5 284.722 534.5C284.983 534.5 285.206 534.589 285.392 534.767C285.581 534.945 285.676 535.159 285.676 535.409C285.676 535.659 285.581 535.873 285.392 536.051C285.206 536.229 284.983 536.318 284.722 536.318ZM287.837 546.5V537.773H289.132V539.091H289.223C289.382 538.659 289.67 538.309 290.087 538.04C290.503 537.771 290.973 537.636 291.496 537.636C291.594 537.636 291.717 537.638 291.865 537.642C292.013 537.646 292.125 537.652 292.2 537.659V539.023C292.155 539.011 292.051 538.994 291.888 538.972C291.729 538.945 291.56 538.932 291.382 538.932C290.958 538.932 290.579 539.021 290.246 539.199C289.916 539.373 289.655 539.616 289.462 539.926C289.272 540.233 289.178 540.583 289.178 540.977V546.5H287.837ZM298.132 537.773V538.909H293.609V537.773H298.132ZM294.928 535.682H296.268V544C296.268 544.379 296.323 544.663 296.433 544.852C296.547 545.038 296.691 545.163 296.865 545.227C297.043 545.288 297.231 545.318 297.428 545.318C297.575 545.318 297.696 545.311 297.791 545.295C297.886 545.277 297.962 545.261 298.018 545.25L298.291 546.455C298.2 546.489 298.073 546.523 297.911 546.557C297.748 546.595 297.541 546.614 297.291 546.614C296.912 546.614 296.541 546.532 296.178 546.369C295.818 546.206 295.518 545.958 295.28 545.625C295.045 545.292 294.928 544.871 294.928 544.364V535.682ZM305.649 542.932V537.773H306.99V546.5H305.649V545.023H305.558C305.354 545.466 305.036 545.843 304.604 546.153C304.172 546.46 303.626 546.614 302.967 546.614C302.422 546.614 301.937 546.494 301.513 546.256C301.089 546.013 300.755 545.65 300.513 545.165C300.27 544.676 300.149 544.061 300.149 543.318V537.773H301.49V543.227C301.49 543.864 301.668 544.371 302.024 544.75C302.384 545.129 302.842 545.318 303.399 545.318C303.732 545.318 304.071 545.233 304.416 545.062C304.765 544.892 305.056 544.631 305.291 544.278C305.53 543.926 305.649 543.477 305.649 542.932ZM312.014 546.705C311.461 546.705 310.959 546.6 310.509 546.392C310.058 546.18 309.7 545.875 309.435 545.477C309.17 545.076 309.037 544.591 309.037 544.023C309.037 543.523 309.135 543.117 309.332 542.807C309.529 542.492 309.793 542.246 310.122 542.068C310.452 541.89 310.815 541.758 311.213 541.67C311.615 541.58 312.018 541.508 312.423 541.455C312.954 541.386 313.384 541.335 313.713 541.301C314.046 541.263 314.289 541.201 314.44 541.114C314.596 541.027 314.673 540.875 314.673 540.659V540.614C314.673 540.053 314.52 539.617 314.213 539.307C313.91 538.996 313.45 538.841 312.832 538.841C312.192 538.841 311.69 538.981 311.327 539.261C310.963 539.542 310.707 539.841 310.56 540.159L309.287 539.705C309.514 539.174 309.817 538.761 310.196 538.466C310.579 538.167 310.995 537.958 311.446 537.841C311.901 537.72 312.348 537.659 312.787 537.659C313.067 537.659 313.389 537.693 313.753 537.761C314.12 537.826 314.474 537.96 314.815 538.165C315.16 538.369 315.446 538.678 315.673 539.091C315.901 539.504 316.014 540.057 316.014 540.75V546.5H314.673V545.318H314.605C314.514 545.508 314.363 545.71 314.151 545.926C313.938 546.142 313.656 546.326 313.304 546.477C312.952 546.629 312.522 546.705 312.014 546.705ZM312.219 545.5C312.749 545.5 313.196 545.396 313.56 545.188C313.927 544.979 314.204 544.71 314.389 544.381C314.579 544.051 314.673 543.705 314.673 543.341V542.114C314.616 542.182 314.491 542.244 314.298 542.301C314.109 542.354 313.889 542.402 313.639 542.443C313.393 542.481 313.152 542.515 312.918 542.545C312.687 542.572 312.499 542.595 312.355 542.614C312.007 542.659 311.681 542.733 311.378 542.835C311.079 542.934 310.836 543.083 310.651 543.284C310.469 543.481 310.378 543.75 310.378 544.091C310.378 544.557 310.55 544.909 310.895 545.148C311.243 545.383 311.685 545.5 312.219 545.5ZM319.803 534.864V546.5H318.462V534.864H319.803ZM336.304 538.5H334.895C334.812 538.095 334.666 537.739 334.457 537.432C334.253 537.125 334.003 536.867 333.707 536.659C333.416 536.447 333.092 536.288 332.736 536.182C332.38 536.076 332.009 536.023 331.622 536.023C330.918 536.023 330.279 536.201 329.707 536.557C329.139 536.913 328.687 537.438 328.349 538.131C328.016 538.824 327.849 539.674 327.849 540.682C327.849 541.689 328.016 542.54 328.349 543.233C328.687 543.926 329.139 544.451 329.707 544.807C330.279 545.163 330.918 545.341 331.622 545.341C332.009 545.341 332.38 545.288 332.736 545.182C333.092 545.076 333.416 544.919 333.707 544.71C334.003 544.498 334.253 544.239 334.457 543.932C334.666 543.621 334.812 543.265 334.895 542.864H336.304C336.198 543.458 336.005 543.991 335.724 544.46C335.444 544.93 335.096 545.33 334.679 545.659C334.262 545.985 333.795 546.233 333.276 546.403C332.76 546.574 332.209 546.659 331.622 546.659C330.63 546.659 329.747 546.417 328.974 545.932C328.202 545.447 327.594 544.758 327.151 543.864C326.707 542.97 326.486 541.909 326.486 540.682C326.486 539.455 326.707 538.394 327.151 537.5C327.594 536.606 328.202 535.917 328.974 535.432C329.747 534.947 330.63 534.705 331.622 534.705C332.209 534.705 332.76 534.79 333.276 534.96C333.795 535.131 334.262 535.381 334.679 535.71C335.096 536.036 335.444 536.434 335.724 536.903C336.005 537.369 336.198 537.902 336.304 538.5ZM341.945 546.682C341.157 546.682 340.465 546.494 339.871 546.119C339.28 545.744 338.818 545.22 338.484 544.545C338.155 543.871 337.99 543.083 337.99 542.182C337.99 541.273 338.155 540.479 338.484 539.801C338.818 539.123 339.28 538.597 339.871 538.222C340.465 537.847 341.157 537.659 341.945 537.659C342.732 537.659 343.422 537.847 344.013 538.222C344.607 538.597 345.07 539.123 345.399 539.801C345.732 540.479 345.899 541.273 345.899 542.182C345.899 543.083 345.732 543.871 345.399 544.545C345.07 545.22 344.607 545.744 344.013 546.119C343.422 546.494 342.732 546.682 341.945 546.682ZM341.945 545.477C342.543 545.477 343.036 545.324 343.422 545.017C343.808 544.71 344.094 544.307 344.28 543.807C344.465 543.307 344.558 542.765 344.558 542.182C344.558 541.598 344.465 541.055 344.28 540.551C344.094 540.047 343.808 539.64 343.422 539.33C343.036 539.019 342.543 538.864 341.945 538.864C341.346 538.864 340.854 539.019 340.467 539.33C340.081 539.64 339.795 540.047 339.609 540.551C339.424 541.055 339.331 541.598 339.331 542.182C339.331 542.765 339.424 543.307 339.609 543.807C339.795 544.307 340.081 544.71 340.467 545.017C340.854 545.324 341.346 545.477 341.945 545.477ZM350.514 546.705C349.961 546.705 349.459 546.6 349.009 546.392C348.558 546.18 348.2 545.875 347.935 545.477C347.67 545.076 347.537 544.591 347.537 544.023C347.537 543.523 347.635 543.117 347.832 542.807C348.029 542.492 348.293 542.246 348.622 542.068C348.952 541.89 349.315 541.758 349.713 541.67C350.115 541.58 350.518 541.508 350.923 541.455C351.454 541.386 351.884 541.335 352.213 541.301C352.546 541.263 352.789 541.201 352.94 541.114C353.096 541.027 353.173 540.875 353.173 540.659V540.614C353.173 540.053 353.02 539.617 352.713 539.307C352.41 538.996 351.95 538.841 351.332 538.841C350.692 538.841 350.19 538.981 349.827 539.261C349.463 539.542 349.207 539.841 349.06 540.159L347.787 539.705C348.014 539.174 348.317 538.761 348.696 538.466C349.079 538.167 349.495 537.958 349.946 537.841C350.401 537.72 350.848 537.659 351.287 537.659C351.567 537.659 351.889 537.693 352.253 537.761C352.62 537.826 352.974 537.96 353.315 538.165C353.66 538.369 353.946 538.678 354.173 539.091C354.401 539.504 354.514 540.057 354.514 540.75V546.5H353.173V545.318H353.105C353.014 545.508 352.863 545.71 352.651 545.926C352.438 546.142 352.156 546.326 351.804 546.477C351.452 546.629 351.022 546.705 350.514 546.705ZM350.719 545.5C351.249 545.5 351.696 545.396 352.06 545.188C352.427 544.979 352.704 544.71 352.889 544.381C353.079 544.051 353.173 543.705 353.173 543.341V542.114C353.116 542.182 352.991 542.244 352.798 542.301C352.609 542.354 352.389 542.402 352.139 542.443C351.893 542.481 351.652 542.515 351.418 542.545C351.187 542.572 350.999 542.595 350.855 542.614C350.507 542.659 350.181 542.733 349.878 542.835C349.579 542.934 349.336 543.083 349.151 543.284C348.969 543.481 348.878 543.75 348.878 544.091C348.878 544.557 349.05 544.909 349.395 545.148C349.743 545.383 350.185 545.5 350.719 545.5ZM360.507 546.682C359.689 546.682 358.984 546.489 358.393 546.102C357.803 545.716 357.348 545.184 357.03 544.506C356.712 543.828 356.553 543.053 356.553 542.182C356.553 541.295 356.715 540.513 357.041 539.835C357.371 539.153 357.829 538.621 358.416 538.239C359.007 537.852 359.696 537.659 360.484 537.659C361.098 537.659 361.651 537.773 362.143 538C362.636 538.227 363.039 538.545 363.354 538.955C363.668 539.364 363.863 539.841 363.939 540.386H362.598C362.496 539.989 362.268 539.636 361.916 539.33C361.568 539.019 361.098 538.864 360.507 538.864C359.984 538.864 359.526 539 359.132 539.273C358.742 539.542 358.437 539.922 358.217 540.415C358.001 540.903 357.893 541.477 357.893 542.136C357.893 542.811 358 543.398 358.212 543.898C358.428 544.398 358.731 544.786 359.121 545.062C359.515 545.339 359.977 545.477 360.507 545.477C360.856 545.477 361.172 545.417 361.456 545.295C361.74 545.174 361.981 545 362.178 544.773C362.375 544.545 362.515 544.273 362.598 543.955H363.939C363.863 544.47 363.676 544.934 363.376 545.347C363.081 545.756 362.689 546.081 362.2 546.324C361.715 546.562 361.151 546.682 360.507 546.682ZM367.24 541.25V546.5H365.899V534.864H367.24V539.136H367.354C367.558 538.686 367.865 538.328 368.274 538.062C368.687 537.794 369.236 537.659 369.922 537.659C370.517 537.659 371.037 537.778 371.484 538.017C371.931 538.252 372.278 538.614 372.524 539.102C372.774 539.587 372.899 540.205 372.899 540.955V546.5H371.558V541.045C371.558 540.352 371.378 539.816 371.018 539.438C370.662 539.055 370.168 538.864 369.536 538.864C369.096 538.864 368.702 538.956 368.354 539.142C368.009 539.328 367.736 539.598 367.536 539.955C367.339 540.311 367.24 540.742 367.24 541.25Z" fill="black"/>
</g>
<g filter="url(#filter2_d_7_732)">
<rect x="396" y="371" width="122" height="43" rx="21.5" fill="white" shape-rendering="crispEdges"/>
<path d="M428 399.5C426.05 399.5 424.396 398.821 423.037 397.462C421.679 396.104 421 394.45 421 392.5C421 390.55 421.679 388.896 423.037 387.537C424.396 386.179 426.05 385.5 428 385.5C429.95 385.5 431.604 386.179 432.963 387.537C434.321 388.896 435 390.55 435 392.5C435 394.45 434.321 396.104 432.963 397.462C431.604 398.821 429.95 399.5 428 399.5ZM435 399.4V397.4C436.167 397.167 437.125 396.592 437.875 395.675C438.625 394.758 439 393.7 439 392.5C439 391.3 438.625 390.242 437.875 389.325C437.125 388.408 436.167 387.833 435 387.6V385.6C436.733 385.833 438.167 386.604 439.3 387.912C440.433 389.221 441 390.75 441 392.5C441 394.25 440.433 395.779 439.3 397.087C438.167 398.396 436.733 399.167 435 399.4ZM428 397.5C429.383 397.5 430.563 397.012 431.538 396.037C432.513 395.062 433 393.883 433 392.5C433 391.117 432.513 389.937 431.538 388.962C430.563 387.987 429.383 387.5 428 387.5C426.617 387.5 425.438 387.987 424.463 388.962C423.488 389.937 423 391.117 423 392.5C423 393.883 423.488 395.062 424.463 396.037C425.438 397.012 426.617 397.5 428 397.5Z" fill="#1C1B1F"/>
<path d="M457.227 392.182C457.227 393.409 457.006 394.47 456.562 395.364C456.119 396.258 455.511 396.947 454.739 397.432C453.966 397.917 453.083 398.159 452.091 398.159C451.098 398.159 450.216 397.917 449.443 397.432C448.67 396.947 448.063 396.258 447.619 395.364C447.176 394.47 446.955 393.409 446.955 392.182C446.955 390.955 447.176 389.894 447.619 389C448.063 388.106 448.67 387.417 449.443 386.932C450.216 386.447 451.098 386.205 452.091 386.205C453.083 386.205 453.966 386.447 454.739 386.932C455.511 387.417 456.119 388.106 456.562 389C457.006 389.894 457.227 390.955 457.227 392.182ZM455.864 392.182C455.864 391.174 455.695 390.324 455.358 389.631C455.025 388.938 454.572 388.413 454 388.057C453.432 387.701 452.795 387.523 452.091 387.523C451.386 387.523 450.748 387.701 450.176 388.057C449.608 388.413 449.155 388.938 448.818 389.631C448.485 390.324 448.318 391.174 448.318 392.182C448.318 393.189 448.485 394.04 448.818 394.733C449.155 395.426 449.608 395.951 450.176 396.307C450.748 396.663 451.386 396.841 452.091 396.841C452.795 396.841 453.432 396.663 454 396.307C454.572 395.951 455.025 395.426 455.358 394.733C455.695 394.04 455.864 393.189 455.864 392.182ZM463.301 389.273V390.409H458.597V389.273H463.301ZM460.006 398V388.068C460.006 387.568 460.123 387.152 460.358 386.818C460.593 386.485 460.898 386.235 461.273 386.068C461.648 385.902 462.044 385.818 462.46 385.818C462.79 385.818 463.059 385.845 463.267 385.898C463.475 385.951 463.631 386 463.733 386.045L463.347 387.205C463.278 387.182 463.184 387.153 463.062 387.119C462.945 387.085 462.79 387.068 462.597 387.068C462.153 387.068 461.833 387.18 461.636 387.403C461.443 387.627 461.347 387.955 461.347 388.386V398H460.006ZM469.067 389.273V390.409H464.362V389.273H469.067ZM465.771 398V388.068C465.771 387.568 465.889 387.152 466.124 386.818C466.358 386.485 466.663 386.235 467.038 386.068C467.413 385.902 467.809 385.818 468.226 385.818C468.555 385.818 468.824 385.845 469.033 385.898C469.241 385.951 469.396 386 469.499 386.045L469.112 387.205C469.044 387.182 468.949 387.153 468.828 387.119C468.711 387.085 468.555 387.068 468.362 387.068C467.919 387.068 467.599 387.18 467.402 387.403C467.209 387.627 467.112 387.955 467.112 388.386V398H465.771ZM474.246 398.182C473.405 398.182 472.679 397.996 472.07 397.625C471.464 397.25 470.996 396.727 470.666 396.057C470.34 395.383 470.178 394.598 470.178 393.705C470.178 392.811 470.34 392.023 470.666 391.341C470.996 390.655 471.454 390.121 472.041 389.739C472.632 389.352 473.321 389.159 474.109 389.159C474.564 389.159 475.013 389.235 475.456 389.386C475.899 389.538 476.303 389.784 476.666 390.125C477.03 390.462 477.32 390.909 477.536 391.466C477.751 392.023 477.859 392.708 477.859 393.523V394.091H471.132V392.932H476.496C476.496 392.439 476.397 392 476.2 391.614C476.007 391.227 475.731 390.922 475.371 390.699C475.015 390.475 474.594 390.364 474.109 390.364C473.575 390.364 473.113 390.496 472.723 390.761C472.337 391.023 472.039 391.364 471.831 391.784C471.623 392.205 471.518 392.655 471.518 393.136V393.909C471.518 394.568 471.632 395.127 471.859 395.585C472.09 396.04 472.411 396.386 472.82 396.625C473.229 396.86 473.704 396.977 474.246 396.977C474.598 396.977 474.916 396.928 475.2 396.83C475.488 396.727 475.736 396.576 475.945 396.375C476.153 396.17 476.314 395.917 476.428 395.614L477.723 395.977C477.587 396.417 477.357 396.803 477.036 397.136C476.714 397.466 476.316 397.723 475.842 397.909C475.369 398.091 474.837 398.182 474.246 398.182ZM479.899 398V389.273H481.195V390.591H481.286C481.445 390.159 481.732 389.809 482.149 389.54C482.566 389.271 483.036 389.136 483.558 389.136C483.657 389.136 483.78 389.138 483.928 389.142C484.075 389.146 484.187 389.152 484.263 389.159V390.523C484.217 390.511 484.113 390.494 483.95 390.472C483.791 390.445 483.623 390.432 483.445 390.432C483.02 390.432 482.642 390.521 482.308 390.699C481.979 390.873 481.717 391.116 481.524 391.426C481.335 391.733 481.24 392.083 481.24 392.477V398H479.899ZM492.034 391.227L490.83 391.568C490.754 391.367 490.642 391.172 490.494 390.983C490.35 390.79 490.153 390.631 489.903 390.506C489.653 390.381 489.333 390.318 488.943 390.318C488.409 390.318 487.964 390.441 487.608 390.688C487.256 390.93 487.08 391.239 487.08 391.614C487.08 391.947 487.201 392.21 487.443 392.403C487.686 392.597 488.064 392.758 488.58 392.886L489.875 393.205C490.655 393.394 491.237 393.684 491.619 394.074C492.002 394.46 492.193 394.958 492.193 395.568C492.193 396.068 492.049 396.515 491.761 396.909C491.477 397.303 491.08 397.614 490.568 397.841C490.057 398.068 489.462 398.182 488.784 398.182C487.894 398.182 487.157 397.989 486.574 397.602C485.991 397.216 485.621 396.652 485.466 395.909L486.739 395.591C486.86 396.061 487.089 396.413 487.426 396.648C487.767 396.883 488.212 397 488.761 397C489.386 397 489.883 396.867 490.25 396.602C490.621 396.333 490.807 396.011 490.807 395.636C490.807 395.333 490.701 395.08 490.489 394.875C490.277 394.667 489.951 394.511 489.511 394.409L488.057 394.068C487.258 393.879 486.67 393.585 486.295 393.188C485.924 392.786 485.739 392.284 485.739 391.682C485.739 391.189 485.877 390.754 486.153 390.375C486.434 389.996 486.814 389.699 487.295 389.483C487.78 389.267 488.33 389.159 488.943 389.159C489.807 389.159 490.485 389.348 490.977 389.727C491.473 390.106 491.826 390.606 492.034 391.227Z" fill="black"/>
</g>
<g filter="url(#filter3_d_7_732)">
<rect x="278" y="154" width="179" height="48" rx="24" fill="white" shape-rendering="crispEdges"/>
<mask id="mask2_7_732" style="mask-type:alpha" maskUnits="userSpaceOnUse" x="303" y="166" width="24" height="24">
<rect x="303" y="166" width="24" height="24" fill="#D9D9D9"/>
</mask>
<g mask="url(#mask2_7_732)">
<path d="M315 176H320V174H315V176ZM315 182H320V180H315V182ZM312 177C312.55 177 313.021 176.804 313.413 176.412C313.804 176.021 314 175.55 314 175C314 174.45 313.804 173.979 313.413 173.587C313.021 173.196 312.55 173 312 173C311.45 173 310.979 173.196 310.588 173.587C310.196 173.979 310 174.45 310 175C310 175.55 310.196 176.021 310.588 176.412C310.979 176.804 311.45 177 312 177ZM312 183C312.55 183 313.021 182.804 313.413 182.413C313.804 182.021 314 181.55 314 181C314 180.45 313.804 179.979 313.413 179.587C313.021 179.196 312.55 179 312 179C311.45 179 310.979 179.196 310.588 179.587C310.196 179.979 310 180.45 310 181C310 181.55 310.196 182.021 310.588 182.413C310.979 182.804 311.45 183 312 183ZM308 187C307.45 187 306.979 186.804 306.587 186.413C306.196 186.021 306 185.55 306 185V171C306 170.45 306.196 169.979 306.587 169.587C306.979 169.196 307.45 169 308 169H322C322.55 169 323.021 169.196 323.413 169.587C323.804 169.979 324 170.45 324 171V185C324 185.55 323.804 186.021 323.413 186.413C323.021 186.804 322.55 187 322 187H308ZM308 185H322V171H308V185Z" fill="#1C1B1F"/>
</g>
<path d="M333.409 183.5V171.864H337.341C338.254 171.864 339 172.028 339.58 172.358C340.163 172.684 340.595 173.125 340.875 173.682C341.155 174.239 341.295 174.86 341.295 175.545C341.295 176.231 341.155 176.854 340.875 177.415C340.598 177.975 340.17 178.422 339.591 178.756C339.011 179.085 338.269 179.25 337.364 179.25H334.545V178H337.318C337.943 178 338.445 177.892 338.824 177.676C339.203 177.46 339.477 177.169 339.648 176.801C339.822 176.43 339.909 176.011 339.909 175.545C339.909 175.08 339.822 174.663 339.648 174.295C339.477 173.928 339.201 173.64 338.818 173.432C338.436 173.22 337.928 173.114 337.295 173.114H334.818V183.5H333.409ZM346.835 183.682C346.047 183.682 345.356 183.494 344.761 183.119C344.17 182.744 343.708 182.22 343.375 181.545C343.045 180.871 342.881 180.083 342.881 179.182C342.881 178.273 343.045 177.479 343.375 176.801C343.708 176.123 344.17 175.597 344.761 175.222C345.356 174.847 346.047 174.659 346.835 174.659C347.623 174.659 348.313 174.847 348.903 175.222C349.498 175.597 349.96 176.123 350.29 176.801C350.623 177.479 350.79 178.273 350.79 179.182C350.79 180.083 350.623 180.871 350.29 181.545C349.96 182.22 349.498 182.744 348.903 183.119C348.313 183.494 347.623 183.682 346.835 183.682ZM346.835 182.477C347.434 182.477 347.926 182.324 348.312 182.017C348.699 181.71 348.985 181.307 349.17 180.807C349.356 180.307 349.449 179.765 349.449 179.182C349.449 178.598 349.356 178.055 349.17 177.551C348.985 177.047 348.699 176.64 348.312 176.33C347.926 176.019 347.434 175.864 346.835 175.864C346.237 175.864 345.744 176.019 345.358 176.33C344.972 176.64 344.686 177.047 344.5 177.551C344.314 178.055 344.222 178.598 344.222 179.182C344.222 179.765 344.314 180.307 344.5 180.807C344.686 181.307 344.972 181.71 345.358 182.017C345.744 182.324 346.237 182.477 346.835 182.477ZM352.837 183.5V174.773H354.178V183.5H352.837ZM353.518 173.318C353.257 173.318 353.032 173.229 352.842 173.051C352.657 172.873 352.564 172.659 352.564 172.409C352.564 172.159 352.657 171.945 352.842 171.767C353.032 171.589 353.257 171.5 353.518 171.5C353.78 171.5 354.003 171.589 354.189 171.767C354.378 171.945 354.473 172.159 354.473 172.409C354.473 172.659 354.378 172.873 354.189 173.051C354.003 173.229 353.78 173.318 353.518 173.318ZM357.974 178.25V183.5H356.634V174.773H357.929V176.136H358.043C358.247 175.693 358.558 175.337 358.974 175.068C359.391 174.795 359.929 174.659 360.588 174.659C361.179 174.659 361.696 174.78 362.139 175.023C362.582 175.261 362.927 175.625 363.173 176.114C363.42 176.598 363.543 177.212 363.543 177.955V183.5H362.202V178.045C362.202 177.36 362.024 176.826 361.668 176.443C361.312 176.057 360.823 175.864 360.202 175.864C359.774 175.864 359.391 175.956 359.054 176.142C358.721 176.328 358.457 176.598 358.264 176.955C358.071 177.311 357.974 177.742 357.974 178.25ZM369.788 174.773V175.909H365.266V174.773H369.788ZM366.584 172.682H367.925V181C367.925 181.379 367.98 181.663 368.089 181.852C368.203 182.038 368.347 182.163 368.521 182.227C368.699 182.288 368.887 182.318 369.084 182.318C369.232 182.318 369.353 182.311 369.447 182.295C369.542 182.277 369.618 182.261 369.675 182.25L369.947 183.455C369.857 183.489 369.73 183.523 369.567 183.557C369.404 183.595 369.197 183.614 368.947 183.614C368.569 183.614 368.197 183.532 367.834 183.369C367.474 183.206 367.175 182.958 366.936 182.625C366.701 182.292 366.584 181.871 366.584 181.364V172.682ZM382.851 174.773C382.783 174.197 382.506 173.75 382.021 173.432C381.536 173.114 380.942 172.955 380.237 172.955C379.722 172.955 379.271 173.038 378.885 173.205C378.502 173.371 378.203 173.6 377.987 173.892C377.775 174.184 377.669 174.515 377.669 174.886C377.669 175.197 377.743 175.464 377.891 175.688C378.042 175.907 378.235 176.091 378.47 176.239C378.705 176.383 378.951 176.502 379.209 176.597C379.466 176.687 379.703 176.761 379.919 176.818L381.101 177.136C381.404 177.216 381.741 177.326 382.112 177.466C382.487 177.606 382.845 177.797 383.186 178.04C383.531 178.278 383.815 178.585 384.038 178.96C384.262 179.335 384.374 179.795 384.374 180.341C384.374 180.97 384.209 181.538 383.879 182.045C383.554 182.553 383.076 182.956 382.447 183.256C381.822 183.555 381.063 183.705 380.169 183.705C379.336 183.705 378.614 183.57 378.004 183.301C377.398 183.032 376.921 182.657 376.572 182.176C376.228 181.695 376.033 181.136 375.987 180.5H377.442C377.48 180.939 377.627 181.303 377.885 181.591C378.146 181.875 378.476 182.087 378.874 182.227C379.275 182.364 379.707 182.432 380.169 182.432C380.707 182.432 381.19 182.345 381.618 182.17C382.046 181.992 382.385 181.746 382.635 181.432C382.885 181.114 383.01 180.742 383.01 180.318C383.01 179.932 382.902 179.617 382.686 179.375C382.47 179.133 382.186 178.936 381.834 178.784C381.482 178.633 381.101 178.5 380.692 178.386L379.26 177.977C378.351 177.716 377.631 177.343 377.101 176.858C376.571 176.373 376.305 175.739 376.305 174.955C376.305 174.303 376.482 173.735 376.834 173.25C377.19 172.761 377.667 172.383 378.266 172.114C378.868 171.841 379.54 171.705 380.283 171.705C381.033 171.705 381.699 171.839 382.283 172.108C382.866 172.373 383.328 172.737 383.669 173.199C384.014 173.661 384.196 174.186 384.214 174.773H382.851ZM387.372 186.773C387.145 186.773 386.942 186.754 386.764 186.716C386.586 186.682 386.463 186.648 386.395 186.614L386.736 185.432C387.062 185.515 387.349 185.545 387.599 185.523C387.849 185.5 388.071 185.388 388.264 185.188C388.461 184.991 388.641 184.67 388.804 184.227L389.054 183.545L385.827 174.773H387.281L389.69 181.727H389.781L392.19 174.773H393.645L389.94 184.773C389.774 185.223 389.567 185.597 389.321 185.892C389.075 186.191 388.789 186.413 388.463 186.557C388.141 186.701 387.777 186.773 387.372 186.773ZM401.597 176.727L400.392 177.068C400.316 176.867 400.205 176.672 400.057 176.483C399.913 176.29 399.716 176.131 399.466 176.006C399.216 175.881 398.896 175.818 398.506 175.818C397.972 175.818 397.527 175.941 397.17 176.188C396.818 176.43 396.642 176.739 396.642 177.114C396.642 177.447 396.763 177.71 397.006 177.903C397.248 178.097 397.627 178.258 398.142 178.386L399.438 178.705C400.218 178.894 400.799 179.184 401.182 179.574C401.564 179.96 401.756 180.458 401.756 181.068C401.756 181.568 401.612 182.015 401.324 182.409C401.04 182.803 400.642 183.114 400.131 183.341C399.619 183.568 399.025 183.682 398.347 183.682C397.456 183.682 396.72 183.489 396.136 183.102C395.553 182.716 395.184 182.152 395.028 181.409L396.301 181.091C396.422 181.561 396.652 181.913 396.989 182.148C397.33 182.383 397.775 182.5 398.324 182.5C398.949 182.5 399.445 182.367 399.812 182.102C400.184 181.833 400.369 181.511 400.369 181.136C400.369 180.833 400.263 180.58 400.051 180.375C399.839 180.167 399.513 180.011 399.074 179.909L397.619 179.568C396.82 179.379 396.233 179.085 395.858 178.688C395.487 178.286 395.301 177.784 395.301 177.182C395.301 176.689 395.439 176.254 395.716 175.875C395.996 175.496 396.377 175.199 396.858 174.983C397.343 174.767 397.892 174.659 398.506 174.659C399.369 174.659 400.047 174.848 400.54 175.227C401.036 175.606 401.388 176.106 401.597 176.727ZM407.57 174.773V175.909H403.047V174.773H407.57ZM404.365 172.682H405.706V181C405.706 181.379 405.761 181.663 405.871 181.852C405.984 182.038 406.128 182.163 406.303 182.227C406.481 182.288 406.668 182.318 406.865 182.318C407.013 182.318 407.134 182.311 407.229 182.295C407.323 182.277 407.399 182.261 407.456 182.25L407.729 183.455C407.638 183.489 407.511 183.523 407.348 183.557C407.185 183.595 406.979 183.614 406.729 183.614C406.35 183.614 405.979 183.532 405.615 183.369C405.255 183.206 404.956 182.958 404.717 182.625C404.482 182.292 404.365 181.871 404.365 181.364V172.682ZM413.152 183.682C412.311 183.682 411.586 183.496 410.976 183.125C410.37 182.75 409.902 182.227 409.572 181.557C409.247 180.883 409.084 180.098 409.084 179.205C409.084 178.311 409.247 177.523 409.572 176.841C409.902 176.155 410.36 175.621 410.947 175.239C411.538 174.852 412.228 174.659 413.016 174.659C413.47 174.659 413.919 174.735 414.362 174.886C414.805 175.038 415.209 175.284 415.572 175.625C415.936 175.962 416.226 176.409 416.442 176.966C416.658 177.523 416.766 178.208 416.766 179.023V179.591H410.038V178.432H415.402C415.402 177.939 415.304 177.5 415.107 177.114C414.913 176.727 414.637 176.422 414.277 176.199C413.921 175.975 413.5 175.864 413.016 175.864C412.482 175.864 412.019 175.996 411.629 176.261C411.243 176.523 410.946 176.864 410.737 177.284C410.529 177.705 410.425 178.155 410.425 178.636V179.409C410.425 180.068 410.538 180.627 410.766 181.085C410.997 181.54 411.317 181.886 411.726 182.125C412.135 182.36 412.61 182.477 413.152 182.477C413.504 182.477 413.822 182.428 414.107 182.33C414.394 182.227 414.643 182.076 414.851 181.875C415.059 181.67 415.22 181.417 415.334 181.114L416.629 181.477C416.493 181.917 416.264 182.303 415.942 182.636C415.62 182.966 415.222 183.223 414.749 183.409C414.275 183.591 413.743 183.682 413.152 183.682ZM418.805 183.5V174.773H420.101V176.136H420.214C420.396 175.67 420.69 175.309 421.095 175.051C421.5 174.79 421.987 174.659 422.555 174.659C423.131 174.659 423.61 174.79 423.993 175.051C424.379 175.309 424.68 175.67 424.896 176.136H424.987C425.211 175.686 425.546 175.328 425.993 175.062C426.44 174.794 426.976 174.659 427.601 174.659C428.381 174.659 429.019 174.903 429.516 175.392C430.012 175.877 430.26 176.633 430.26 177.659V183.5H428.919V177.659C428.919 177.015 428.743 176.555 428.391 176.278C428.038 176.002 427.624 175.864 427.146 175.864C426.533 175.864 426.057 176.049 425.72 176.42C425.383 176.788 425.214 177.254 425.214 177.818V183.5H423.851V177.523C423.851 177.027 423.69 176.627 423.368 176.324C423.046 176.017 422.631 175.864 422.124 175.864C421.775 175.864 421.449 175.956 421.146 176.142C420.847 176.328 420.605 176.585 420.419 176.915C420.237 177.241 420.146 177.617 420.146 178.045V183.5H418.805Z" fill="black"/>
</g>
<g filter="url(#filter4_d_7_732)">
<rect x="46" y="301" width="220" height="48" rx="24" fill="white" shape-rendering="crispEdges"/>
<mask id="mask3_7_732" style="mask-type:alpha" maskUnits="userSpaceOnUse" x="71" y="313" width="24" height="24">
<rect x="71" y="313" width="24" height="24" fill="#D9D9D9"/>
</mask>
<g mask="url(#mask3_7_732)">
<path d="M83 336L80 333H76C75.45 333 74.979 332.804 74.587 332.413C74.1957 332.021 74 331.55 74 331V317C74 316.45 74.1957 315.979 74.587 315.587C74.979 315.196 75.45 315 76 315H90C90.55 315 91.021 315.196 91.413 315.587C91.8043 315.979 92 316.45 92 317V331C92 331.55 91.8043 332.021 91.413 332.413C91.021 332.804 90.55 333 90 333H86L83 336ZM76 331H80.8L83 333.2L85.2 331H90V317H76V331ZM84.55 325.55L88 324L84.55 322.45L83 319L81.45 322.45L78 324L81.45 325.55L83 329L84.55 325.55Z" fill="#1C1B1F"/>
</g>
<path d="M101.409 330.5V318.864H105.341C106.25 318.864 106.996 319.019 107.58 319.33C108.163 319.636 108.595 320.059 108.875 320.597C109.155 321.134 109.295 321.746 109.295 322.432C109.295 323.117 109.155 323.725 108.875 324.256C108.595 324.786 108.165 325.203 107.585 325.506C107.006 325.805 106.265 325.955 105.364 325.955H102.182V324.682H105.318C105.939 324.682 106.439 324.591 106.818 324.409C107.201 324.227 107.477 323.97 107.648 323.636C107.822 323.299 107.909 322.898 107.909 322.432C107.909 321.966 107.822 321.559 107.648 321.21C107.473 320.862 107.195 320.593 106.812 320.403C106.43 320.21 105.924 320.114 105.295 320.114H102.818V330.5H101.409ZM106.886 325.273L109.75 330.5H108.114L105.295 325.273H106.886ZM115.027 330.682C114.186 330.682 113.461 330.496 112.851 330.125C112.245 329.75 111.777 329.227 111.447 328.557C111.122 327.883 110.959 327.098 110.959 326.205C110.959 325.311 111.122 324.523 111.447 323.841C111.777 323.155 112.235 322.621 112.822 322.239C113.413 321.852 114.103 321.659 114.891 321.659C115.345 321.659 115.794 321.735 116.237 321.886C116.68 322.038 117.084 322.284 117.447 322.625C117.811 322.962 118.101 323.409 118.317 323.966C118.533 324.523 118.641 325.208 118.641 326.023V326.591H111.913V325.432H117.277C117.277 324.939 117.179 324.5 116.982 324.114C116.788 323.727 116.512 323.422 116.152 323.199C115.796 322.975 115.375 322.864 114.891 322.864C114.357 322.864 113.894 322.996 113.504 323.261C113.118 323.523 112.821 323.864 112.612 324.284C112.404 324.705 112.3 325.155 112.3 325.636V326.409C112.3 327.068 112.413 327.627 112.641 328.085C112.872 328.54 113.192 328.886 113.601 329.125C114.01 329.36 114.485 329.477 115.027 329.477C115.379 329.477 115.697 329.428 115.982 329.33C116.269 329.227 116.518 329.076 116.726 328.875C116.934 328.67 117.095 328.417 117.209 328.114L118.504 328.477C118.368 328.917 118.139 329.303 117.817 329.636C117.495 329.966 117.097 330.223 116.624 330.409C116.15 330.591 115.618 330.682 115.027 330.682ZM124.226 330.682C123.408 330.682 122.703 330.489 122.112 330.102C121.521 329.716 121.067 329.184 120.749 328.506C120.43 327.828 120.271 327.053 120.271 326.182C120.271 325.295 120.434 324.513 120.76 323.835C121.089 323.153 121.548 322.621 122.135 322.239C122.726 321.852 123.415 321.659 124.203 321.659C124.817 321.659 125.37 321.773 125.862 322C126.355 322.227 126.758 322.545 127.072 322.955C127.387 323.364 127.582 323.841 127.658 324.386H126.317C126.214 323.989 125.987 323.636 125.635 323.33C125.286 323.019 124.817 322.864 124.226 322.864C123.703 322.864 123.245 323 122.851 323.273C122.461 323.542 122.156 323.922 121.936 324.415C121.72 324.903 121.612 325.477 121.612 326.136C121.612 326.811 121.718 327.398 121.93 327.898C122.146 328.398 122.449 328.786 122.839 329.062C123.233 329.339 123.696 329.477 124.226 329.477C124.574 329.477 124.891 329.417 125.175 329.295C125.459 329.174 125.699 329 125.896 328.773C126.093 328.545 126.233 328.273 126.317 327.955H127.658C127.582 328.47 127.394 328.934 127.095 329.347C126.8 329.756 126.408 330.081 125.919 330.324C125.434 330.562 124.87 330.682 124.226 330.682ZM133.163 330.682C132.375 330.682 131.684 330.494 131.089 330.119C130.499 329.744 130.036 329.22 129.703 328.545C129.374 327.871 129.209 327.083 129.209 326.182C129.209 325.273 129.374 324.479 129.703 323.801C130.036 323.123 130.499 322.597 131.089 322.222C131.684 321.847 132.375 321.659 133.163 321.659C133.951 321.659 134.641 321.847 135.232 322.222C135.826 322.597 136.288 323.123 136.618 323.801C136.951 324.479 137.118 325.273 137.118 326.182C137.118 327.083 136.951 327.871 136.618 328.545C136.288 329.22 135.826 329.744 135.232 330.119C134.641 330.494 133.951 330.682 133.163 330.682ZM133.163 329.477C133.762 329.477 134.254 329.324 134.641 329.017C135.027 328.71 135.313 328.307 135.499 327.807C135.684 327.307 135.777 326.765 135.777 326.182C135.777 325.598 135.684 325.055 135.499 324.551C135.313 324.047 135.027 323.64 134.641 323.33C134.254 323.019 133.762 322.864 133.163 322.864C132.565 322.864 132.072 323.019 131.686 323.33C131.3 323.64 131.014 324.047 130.828 324.551C130.643 325.055 130.55 325.598 130.55 326.182C130.55 326.765 130.643 327.307 130.828 327.807C131.014 328.307 131.3 328.71 131.686 329.017C132.072 329.324 132.565 329.477 133.163 329.477ZM139.165 330.5V321.773H140.46V323.136H140.574C140.756 322.67 141.049 322.309 141.455 322.051C141.86 321.79 142.347 321.659 142.915 321.659C143.491 321.659 143.97 321.79 144.352 322.051C144.739 322.309 145.04 322.67 145.256 323.136H145.347C145.57 322.686 145.905 322.328 146.352 322.062C146.799 321.794 147.335 321.659 147.96 321.659C148.741 321.659 149.379 321.903 149.875 322.392C150.371 322.877 150.619 323.633 150.619 324.659V330.5H149.278V324.659C149.278 324.015 149.102 323.555 148.75 323.278C148.398 323.002 147.983 322.864 147.506 322.864C146.892 322.864 146.417 323.049 146.08 323.42C145.742 323.788 145.574 324.254 145.574 324.818V330.5H144.21V324.523C144.21 324.027 144.049 323.627 143.727 323.324C143.405 323.017 142.991 322.864 142.483 322.864C142.134 322.864 141.809 322.956 141.506 323.142C141.206 323.328 140.964 323.585 140.778 323.915C140.597 324.241 140.506 324.617 140.506 325.045V330.5H139.165ZM153.071 330.5V321.773H154.366V323.136H154.48C154.662 322.67 154.955 322.309 155.361 322.051C155.766 321.79 156.253 321.659 156.821 321.659C157.397 321.659 157.876 321.79 158.259 322.051C158.645 322.309 158.946 322.67 159.162 323.136H159.253C159.476 322.686 159.812 322.328 160.259 322.062C160.705 321.794 161.241 321.659 161.866 321.659C162.647 321.659 163.285 321.903 163.781 322.392C164.277 322.877 164.526 323.633 164.526 324.659V330.5H163.185V324.659C163.185 324.015 163.009 323.555 162.656 323.278C162.304 323.002 161.889 322.864 161.412 322.864C160.798 322.864 160.323 323.049 159.986 323.42C159.649 323.788 159.48 324.254 159.48 324.818V330.5H158.116V324.523C158.116 324.027 157.955 323.627 157.634 323.324C157.312 323.017 156.897 322.864 156.389 322.864C156.041 322.864 155.715 322.956 155.412 323.142C155.113 323.328 154.87 323.585 154.685 323.915C154.503 324.241 154.412 324.617 154.412 325.045V330.5H153.071ZM170.636 330.682C169.795 330.682 169.07 330.496 168.46 330.125C167.854 329.75 167.386 329.227 167.057 328.557C166.731 327.883 166.568 327.098 166.568 326.205C166.568 325.311 166.731 324.523 167.057 323.841C167.386 323.155 167.845 322.621 168.432 322.239C169.023 321.852 169.712 321.659 170.5 321.659C170.955 321.659 171.403 321.735 171.847 321.886C172.29 322.038 172.693 322.284 173.057 322.625C173.42 322.962 173.71 323.409 173.926 323.966C174.142 324.523 174.25 325.208 174.25 326.023V326.591H167.523V325.432H172.886C172.886 324.939 172.788 324.5 172.591 324.114C172.398 323.727 172.121 323.422 171.761 323.199C171.405 322.975 170.985 322.864 170.5 322.864C169.966 322.864 169.504 322.996 169.114 323.261C168.727 323.523 168.43 323.864 168.222 324.284C168.013 324.705 167.909 325.155 167.909 325.636V326.409C167.909 327.068 168.023 327.627 168.25 328.085C168.481 328.54 168.801 328.886 169.21 329.125C169.619 329.36 170.095 329.477 170.636 329.477C170.989 329.477 171.307 329.428 171.591 329.33C171.879 329.227 172.127 329.076 172.335 328.875C172.544 328.67 172.705 328.417 172.818 328.114L174.114 328.477C173.977 328.917 173.748 329.303 173.426 329.636C173.104 329.966 172.706 330.223 172.233 330.409C171.759 330.591 171.227 330.682 170.636 330.682ZM177.631 325.25V330.5H176.29V321.773H177.585V323.136H177.699C177.903 322.693 178.214 322.337 178.631 322.068C179.047 321.795 179.585 321.659 180.244 321.659C180.835 321.659 181.352 321.78 181.795 322.023C182.239 322.261 182.583 322.625 182.83 323.114C183.076 323.598 183.199 324.212 183.199 324.955V330.5H181.858V325.045C181.858 324.36 181.68 323.826 181.324 323.443C180.968 323.057 180.479 322.864 179.858 322.864C179.43 322.864 179.047 322.956 178.71 323.142C178.377 323.328 178.114 323.598 177.92 323.955C177.727 324.311 177.631 324.742 177.631 325.25ZM188.945 330.682C188.217 330.682 187.575 330.498 187.018 330.131C186.462 329.759 186.026 329.237 185.712 328.562C185.397 327.884 185.24 327.083 185.24 326.159C185.24 325.242 185.397 324.447 185.712 323.773C186.026 323.098 186.464 322.578 187.024 322.21C187.585 321.843 188.232 321.659 188.967 321.659C189.536 321.659 189.984 321.754 190.314 321.943C190.647 322.129 190.901 322.341 191.075 322.58C191.253 322.814 191.392 323.008 191.49 323.159H191.604V318.864H192.945V330.5H191.649V329.159H191.49C191.392 329.318 191.251 329.519 191.07 329.761C190.888 330 190.628 330.214 190.291 330.403C189.954 330.589 189.505 330.682 188.945 330.682ZM189.126 329.477C189.664 329.477 190.119 329.337 190.49 329.057C190.861 328.773 191.143 328.381 191.337 327.881C191.53 327.377 191.626 326.795 191.626 326.136C191.626 325.485 191.532 324.915 191.342 324.426C191.153 323.934 190.873 323.551 190.501 323.278C190.13 323.002 189.672 322.864 189.126 322.864C188.558 322.864 188.085 323.009 187.706 323.301C187.331 323.589 187.049 323.981 186.859 324.477C186.674 324.97 186.581 325.523 186.581 326.136C186.581 326.758 186.676 327.322 186.865 327.83C187.058 328.333 187.342 328.735 187.717 329.034C188.096 329.33 188.566 329.477 189.126 329.477ZM198.155 330.705C197.602 330.705 197.1 330.6 196.649 330.392C196.198 330.18 195.84 329.875 195.575 329.477C195.31 329.076 195.178 328.591 195.178 328.023C195.178 327.523 195.276 327.117 195.473 326.807C195.67 326.492 195.933 326.246 196.263 326.068C196.592 325.89 196.956 325.758 197.354 325.67C197.755 325.58 198.159 325.508 198.564 325.455C199.094 325.386 199.524 325.335 199.854 325.301C200.187 325.263 200.429 325.201 200.581 325.114C200.736 325.027 200.814 324.875 200.814 324.659V324.614C200.814 324.053 200.661 323.617 200.354 323.307C200.051 322.996 199.59 322.841 198.973 322.841C198.333 322.841 197.831 322.981 197.467 323.261C197.104 323.542 196.848 323.841 196.7 324.159L195.428 323.705C195.655 323.174 195.958 322.761 196.337 322.466C196.719 322.167 197.136 321.958 197.587 321.841C198.041 321.72 198.488 321.659 198.928 321.659C199.208 321.659 199.53 321.693 199.893 321.761C200.261 321.826 200.615 321.96 200.956 322.165C201.301 322.369 201.587 322.678 201.814 323.091C202.041 323.504 202.155 324.057 202.155 324.75V330.5H200.814V329.318H200.746C200.655 329.508 200.503 329.71 200.291 329.926C200.079 330.142 199.797 330.326 199.445 330.477C199.092 330.629 198.662 330.705 198.155 330.705ZM198.359 329.5C198.89 329.5 199.337 329.396 199.7 329.188C200.068 328.979 200.344 328.71 200.53 328.381C200.719 328.051 200.814 327.705 200.814 327.341V326.114C200.757 326.182 200.632 326.244 200.439 326.301C200.25 326.354 200.03 326.402 199.78 326.443C199.534 326.481 199.293 326.515 199.058 326.545C198.827 326.572 198.64 326.595 198.496 326.614C198.147 326.659 197.821 326.733 197.518 326.835C197.219 326.934 196.977 327.083 196.791 327.284C196.609 327.481 196.518 327.75 196.518 328.091C196.518 328.557 196.691 328.909 197.036 329.148C197.384 329.383 197.825 329.5 198.359 329.5ZM208.398 321.773V322.909H203.875V321.773H208.398ZM205.193 319.682H206.534V328C206.534 328.379 206.589 328.663 206.699 328.852C206.813 329.038 206.956 329.163 207.131 329.227C207.309 329.288 207.496 329.318 207.693 329.318C207.841 329.318 207.962 329.311 208.057 329.295C208.152 329.277 208.227 329.261 208.284 329.25L208.557 330.455C208.466 330.489 208.339 330.523 208.176 330.557C208.013 330.595 207.807 330.614 207.557 330.614C207.178 330.614 206.807 330.532 206.443 330.369C206.083 330.206 205.784 329.958 205.545 329.625C205.311 329.292 205.193 328.871 205.193 328.364V319.682ZM210.415 330.5V321.773H211.756V330.5H210.415ZM211.097 320.318C210.835 320.318 210.61 320.229 210.42 320.051C210.235 319.873 210.142 319.659 210.142 319.409C210.142 319.159 210.235 318.945 210.42 318.767C210.61 318.589 210.835 318.5 211.097 318.5C211.358 318.5 211.581 318.589 211.767 318.767C211.956 318.945 212.051 319.159 212.051 319.409C212.051 319.659 211.956 319.873 211.767 320.051C211.581 320.229 211.358 320.318 211.097 320.318ZM217.757 330.682C216.969 330.682 216.278 330.494 215.683 330.119C215.092 329.744 214.63 329.22 214.297 328.545C213.967 327.871 213.803 327.083 213.803 326.182C213.803 325.273 213.967 324.479 214.297 323.801C214.63 323.123 215.092 322.597 215.683 322.222C216.278 321.847 216.969 321.659 217.757 321.659C218.545 321.659 219.234 321.847 219.825 322.222C220.42 322.597 220.882 323.123 221.212 323.801C221.545 324.479 221.712 325.273 221.712 326.182C221.712 327.083 221.545 327.871 221.212 328.545C220.882 329.22 220.42 329.744 219.825 330.119C219.234 330.494 218.545 330.682 217.757 330.682ZM217.757 329.477C218.356 329.477 218.848 329.324 219.234 329.017C219.621 328.71 219.907 328.307 220.092 327.807C220.278 327.307 220.371 326.765 220.371 326.182C220.371 325.598 220.278 325.055 220.092 324.551C219.907 324.047 219.621 323.64 219.234 323.33C218.848 323.019 218.356 322.864 217.757 322.864C217.159 322.864 216.666 323.019 216.28 323.33C215.893 323.64 215.607 324.047 215.422 324.551C215.236 325.055 215.143 325.598 215.143 326.182C215.143 326.765 215.236 327.307 215.422 327.807C215.607 328.307 215.893 328.71 216.28 329.017C216.666 329.324 217.159 329.477 217.757 329.477ZM225.099 325.25V330.5H223.759V321.773H225.054V323.136H225.168C225.372 322.693 225.683 322.337 226.099 322.068C226.516 321.795 227.054 321.659 227.713 321.659C228.304 321.659 228.821 321.78 229.264 322.023C229.707 322.261 230.052 322.625 230.298 323.114C230.545 323.598 230.668 324.212 230.668 324.955V330.5H229.327V325.045C229.327 324.36 229.149 323.826 228.793 323.443C228.437 323.057 227.948 322.864 227.327 322.864C226.899 322.864 226.516 322.956 226.179 323.142C225.846 323.328 225.582 323.598 225.389 323.955C225.196 324.311 225.099 324.742 225.099 325.25ZM239.3 323.727L238.095 324.068C238.019 323.867 237.908 323.672 237.76 323.483C237.616 323.29 237.419 323.131 237.169 323.006C236.919 322.881 236.599 322.818 236.209 322.818C235.675 322.818 235.23 322.941 234.874 323.188C234.521 323.43 234.345 323.739 234.345 324.114C234.345 324.447 234.466 324.71 234.709 324.903C234.951 325.097 235.33 325.258 235.845 325.386L237.141 325.705C237.921 325.894 238.502 326.184 238.885 326.574C239.268 326.96 239.459 327.458 239.459 328.068C239.459 328.568 239.315 329.015 239.027 329.409C238.743 329.803 238.345 330.114 237.834 330.341C237.322 330.568 236.728 330.682 236.05 330.682C235.16 330.682 234.423 330.489 233.839 330.102C233.256 329.716 232.887 329.152 232.732 328.409L234.004 328.091C234.125 328.561 234.355 328.913 234.692 329.148C235.033 329.383 235.478 329.5 236.027 329.5C236.652 329.5 237.148 329.367 237.516 329.102C237.887 328.833 238.072 328.511 238.072 328.136C238.072 327.833 237.966 327.58 237.754 327.375C237.542 327.167 237.216 327.011 236.777 326.909L235.322 326.568C234.523 326.379 233.936 326.085 233.561 325.688C233.19 325.286 233.004 324.784 233.004 324.182C233.004 323.689 233.143 323.254 233.419 322.875C233.699 322.496 234.08 322.199 234.561 321.983C235.046 321.767 235.595 321.659 236.209 321.659C237.072 321.659 237.75 321.848 238.243 322.227C238.739 322.606 239.091 323.106 239.3 323.727Z" fill="black"/>
</g>
<g filter="url(#filter5_d_7_732)">
<rect x="4" y="73" width="214" height="48" rx="24" fill="white" shape-rendering="crispEdges"/>
<mask id="mask4_7_732" style="mask-type:alpha" maskUnits="userSpaceOnUse" x="29" y="85" width="24" height="24">
<rect x="29" y="85" width="24" height="24" fill="#D9D9D9"/>
</mask>
<g mask="url(#mask4_7_732)">
<path d="M34 105V99H37V105H34ZM40 105V94H43V105H40ZM46 105V89H49V105H46Z" fill="#1C1B1F"/>
</g>
<path d="M61.5227 102.5L58.3409 90.8636H59.7727L62.2045 100.341H62.3182L64.7955 90.8636H66.3864L68.8636 100.341H68.9773L71.4091 90.8636H72.8409L69.6591 102.5H68.2045L65.6364 93.2273H65.5455L62.9773 102.5H61.5227ZM77.2614 102.682C76.4205 102.682 75.6951 102.496 75.0852 102.125C74.4792 101.75 74.0114 101.227 73.6818 100.557C73.3561 99.8826 73.1932 99.0985 73.1932 98.2045C73.1932 97.3106 73.3561 96.5227 73.6818 95.8409C74.0114 95.1553 74.4697 94.6212 75.0568 94.2386C75.6477 93.8523 76.3371 93.6591 77.125 93.6591C77.5795 93.6591 78.0284 93.7348 78.4716 93.8864C78.9148 94.0379 79.3182 94.2841 79.6818 94.625C80.0455 94.9621 80.3352 95.4091 80.5511 95.9659C80.767 96.5227 80.875 97.2083 80.875 98.0227V98.5909H74.1477V97.4318H79.5114C79.5114 96.9394 79.4129 96.5 79.2159 96.1136C79.0227 95.7273 78.7462 95.4223 78.3864 95.1989C78.0303 94.9754 77.6098 94.8636 77.125 94.8636C76.5909 94.8636 76.1288 94.9962 75.7386 95.2614C75.3523 95.5227 75.0549 95.8636 74.8466 96.2841C74.6383 96.7045 74.5341 97.1553 74.5341 97.6364V98.4091C74.5341 99.0682 74.6477 99.6269 74.875 100.085C75.1061 100.54 75.4261 100.886 75.8352 101.125C76.2443 101.36 76.7197 101.477 77.2614 101.477C77.6136 101.477 77.9318 101.428 78.2159 101.33C78.5038 101.227 78.7519 101.076 78.9602 100.875C79.1686 100.67 79.3295 100.417 79.4432 100.114L80.7386 100.477C80.6023 100.917 80.3731 101.303 80.0511 101.636C79.7292 101.966 79.3314 102.223 78.858 102.409C78.3845 102.591 77.8523 102.682 77.2614 102.682ZM84.2557 90.8636V102.5H82.9148V90.8636H84.2557ZM88.0526 90.8636V102.5H86.7116V90.8636H88.0526ZM90.6903 102.5V90.8636H92.0312V95.1591H92.1449C92.2434 95.0076 92.3797 94.8144 92.554 94.5795C92.732 94.3409 92.9858 94.1288 93.3153 93.9432C93.6487 93.7538 94.0994 93.6591 94.6676 93.6591C95.4025 93.6591 96.0502 93.8428 96.6108 94.2102C97.1714 94.5777 97.6089 95.0985 97.9233 95.7727C98.2377 96.447 98.3949 97.2424 98.3949 98.1591C98.3949 99.0833 98.2377 99.8845 97.9233 100.562C97.6089 101.237 97.1733 101.759 96.6165 102.131C96.0597 102.498 95.4176 102.682 94.6903 102.682C94.1297 102.682 93.6809 102.589 93.3438 102.403C93.0066 102.214 92.7472 102 92.5653 101.761C92.3835 101.519 92.2434 101.318 92.1449 101.159H91.9858V102.5H90.6903ZM92.0085 98.1364C92.0085 98.7955 92.1051 99.3769 92.2983 99.8807C92.4915 100.381 92.7737 100.773 93.1449 101.057C93.5161 101.337 93.9706 101.477 94.5085 101.477C95.0691 101.477 95.5369 101.33 95.9119 101.034C96.2907 100.735 96.5748 100.333 96.7642 99.8295C96.9574 99.322 97.054 98.7576 97.054 98.1364C97.054 97.5227 96.9593 96.9697 96.7699 96.4773C96.5843 95.9811 96.3021 95.589 95.9233 95.3011C95.5483 95.0095 95.0767 94.8636 94.5085 94.8636C93.9631 94.8636 93.5047 95.0019 93.1335 95.2784C92.7623 95.5511 92.482 95.9337 92.2926 96.4261C92.1032 96.9148 92.0085 97.4848 92.0085 98.1364ZM104.105 102.682C103.264 102.682 102.539 102.496 101.929 102.125C101.323 101.75 100.855 101.227 100.526 100.557C100.2 99.8826 100.037 99.0985 100.037 98.2045C100.037 97.3106 100.2 96.5227 100.526 95.8409C100.855 95.1553 101.313 94.6212 101.901 94.2386C102.491 93.8523 103.181 93.6591 103.969 93.6591C104.423 93.6591 104.872 93.7348 105.315 93.8864C105.759 94.0379 106.162 94.2841 106.526 94.625C106.889 94.9621 107.179 95.4091 107.395 95.9659C107.611 96.5227 107.719 97.2083 107.719 98.0227V98.5909H100.991V97.4318H106.355C106.355 96.9394 106.257 96.5 106.06 96.1136C105.866 95.7273 105.59 95.4223 105.23 95.1989C104.874 94.9754 104.454 94.8636 103.969 94.8636C103.435 94.8636 102.973 94.9962 102.582 95.2614C102.196 95.5227 101.899 95.8636 101.69 96.2841C101.482 96.7045 101.378 97.1553 101.378 97.6364V98.4091C101.378 99.0682 101.491 99.6269 101.719 100.085C101.95 100.54 102.27 100.886 102.679 101.125C103.088 101.36 103.563 101.477 104.105 101.477C104.457 101.477 104.776 101.428 105.06 101.33C105.348 101.227 105.596 101.076 105.804 100.875C106.012 100.67 106.173 100.417 106.287 100.114L107.582 100.477C107.446 100.917 107.217 101.303 106.895 101.636C106.573 101.966 106.175 102.223 105.702 102.409C105.228 102.591 104.696 102.682 104.105 102.682ZM109.759 102.5V93.7727H111.099V102.5H109.759ZM110.44 92.3182C110.179 92.3182 109.954 92.2292 109.764 92.0511C109.579 91.8731 109.486 91.6591 109.486 91.4091C109.486 91.1591 109.579 90.9451 109.764 90.767C109.954 90.589 110.179 90.5 110.44 90.5C110.702 90.5 110.925 90.589 111.111 90.767C111.3 90.9451 111.395 91.1591 111.395 91.4091C111.395 91.6591 111.3 91.8731 111.111 92.0511C110.925 92.2292 110.702 92.3182 110.44 92.3182ZM114.896 97.25V102.5H113.555V93.7727H114.851V95.1364H114.964C115.169 94.6932 115.48 94.3371 115.896 94.0682C116.313 93.7955 116.851 93.6591 117.51 93.6591C118.101 93.6591 118.618 93.7803 119.061 94.0227C119.504 94.2614 119.849 94.625 120.095 95.1136C120.341 95.5985 120.464 96.2121 120.464 96.9545V102.5H119.124V97.0455C119.124 96.3598 118.946 95.8258 118.589 95.4432C118.233 95.0568 117.745 94.8636 117.124 94.8636C116.696 94.8636 116.313 94.9564 115.976 95.142C115.643 95.3277 115.379 95.5985 115.186 95.9545C114.993 96.3106 114.896 96.7424 114.896 97.25ZM126.438 105.955C125.79 105.955 125.233 105.871 124.767 105.705C124.301 105.542 123.913 105.326 123.602 105.057C123.295 104.792 123.051 104.508 122.869 104.205L123.938 103.455C124.059 103.614 124.212 103.795 124.398 104C124.583 104.208 124.837 104.388 125.159 104.54C125.485 104.695 125.911 104.773 126.438 104.773C127.142 104.773 127.723 104.602 128.182 104.261C128.64 103.92 128.869 103.386 128.869 102.659V100.886H128.756C128.657 101.045 128.517 101.242 128.335 101.477C128.157 101.708 127.9 101.915 127.562 102.097C127.229 102.275 126.778 102.364 126.21 102.364C125.506 102.364 124.873 102.197 124.312 101.864C123.756 101.53 123.314 101.045 122.989 100.409C122.667 99.7727 122.506 99 122.506 98.0909C122.506 97.197 122.663 96.4186 122.977 95.7557C123.292 95.089 123.729 94.5739 124.29 94.2102C124.85 93.8428 125.498 93.6591 126.233 93.6591C126.801 93.6591 127.252 93.7538 127.585 93.9432C127.922 94.1288 128.18 94.3409 128.358 94.5795C128.54 94.8144 128.68 95.0076 128.778 95.1591H128.915V93.7727H130.21V102.75C130.21 103.5 130.04 104.11 129.699 104.58C129.362 105.053 128.907 105.4 128.335 105.619C127.767 105.843 127.134 105.955 126.438 105.955ZM126.392 101.159C126.93 101.159 127.384 101.036 127.756 100.79C128.127 100.544 128.409 100.189 128.602 99.7273C128.795 99.2652 128.892 98.7121 128.892 98.0682C128.892 97.4394 128.797 96.8845 128.608 96.4034C128.419 95.9223 128.138 95.5455 127.767 95.2727C127.396 95 126.938 94.8636 126.392 94.8636C125.824 94.8636 125.35 95.0076 124.972 95.2955C124.597 95.5833 124.314 95.9697 124.125 96.4545C123.939 96.9394 123.847 97.4773 123.847 98.0682C123.847 98.6742 123.941 99.2102 124.131 99.6761C124.324 100.138 124.608 100.502 124.983 100.767C125.362 101.028 125.831 101.159 126.392 101.159ZM137.347 90.8636H139.028L142.983 100.523H143.119L147.074 90.8636H148.756V102.5H147.438V93.6591H147.324L143.688 102.5H142.415L138.778 93.6591H138.665V102.5H137.347V90.8636ZM155.058 102.682C154.217 102.682 153.492 102.496 152.882 102.125C152.276 101.75 151.808 101.227 151.479 100.557C151.153 99.8826 150.99 99.0985 150.99 98.2045C150.99 97.3106 151.153 96.5227 151.479 95.8409C151.808 95.1553 152.267 94.6212 152.854 94.2386C153.445 93.8523 154.134 93.6591 154.922 93.6591C155.376 93.6591 155.825 93.7348 156.268 93.8864C156.712 94.0379 157.115 94.2841 157.479 94.625C157.842 94.9621 158.132 95.4091 158.348 95.9659C158.564 96.5227 158.672 97.2083 158.672 98.0227V98.5909H151.945V97.4318H157.308C157.308 96.9394 157.21 96.5 157.013 96.1136C156.82 95.7273 156.543 95.4223 156.183 95.1989C155.827 94.9754 155.407 94.8636 154.922 94.8636C154.388 94.8636 153.926 94.9962 153.536 95.2614C153.149 95.5227 152.852 95.8636 152.643 96.2841C152.435 96.7045 152.331 97.1553 152.331 97.6364V98.4091C152.331 99.0682 152.445 99.6269 152.672 100.085C152.903 100.54 153.223 100.886 153.632 101.125C154.041 101.36 154.517 101.477 155.058 101.477C155.411 101.477 155.729 101.428 156.013 101.33C156.301 101.227 156.549 101.076 156.757 100.875C156.965 100.67 157.126 100.417 157.24 100.114L158.536 100.477C158.399 100.917 158.17 101.303 157.848 101.636C157.526 101.966 157.128 102.223 156.655 102.409C156.181 102.591 155.649 102.682 155.058 102.682ZM164.507 93.7727V94.9091H159.984V93.7727H164.507ZM161.303 91.6818H162.643V100C162.643 100.379 162.698 100.663 162.808 100.852C162.922 101.038 163.066 101.163 163.24 101.227C163.418 101.288 163.606 101.318 163.803 101.318C163.95 101.318 164.071 101.311 164.166 101.295C164.261 101.277 164.337 101.261 164.393 101.25L164.666 102.455C164.575 102.489 164.448 102.523 164.286 102.557C164.123 102.595 163.916 102.614 163.666 102.614C163.287 102.614 162.916 102.532 162.553 102.369C162.193 102.206 161.893 101.958 161.655 101.625C161.42 101.292 161.303 100.871 161.303 100.364V91.6818ZM166.524 102.5V93.7727H167.82V95.0909H167.911C168.07 94.6591 168.357 94.3087 168.774 94.0398C169.191 93.7708 169.661 93.6364 170.183 93.6364C170.282 93.6364 170.405 93.6383 170.553 93.642C170.7 93.6458 170.812 93.6515 170.888 93.6591V95.0227C170.842 95.0114 170.738 94.9943 170.575 94.9716C170.416 94.9451 170.248 94.9318 170.07 94.9318C169.645 94.9318 169.267 95.0208 168.933 95.1989C168.604 95.3731 168.342 95.6155 168.149 95.9261C167.96 96.233 167.865 96.5833 167.865 96.9773V102.5H166.524ZM172.477 102.5V93.7727H173.818V102.5H172.477ZM173.159 92.3182C172.898 92.3182 172.672 92.2292 172.483 92.0511C172.297 91.8731 172.205 91.6591 172.205 91.4091C172.205 91.1591 172.297 90.9451 172.483 90.767C172.672 90.589 172.898 90.5 173.159 90.5C173.42 90.5 173.644 90.589 173.83 90.767C174.019 90.9451 174.114 91.1591 174.114 91.4091C174.114 91.6591 174.019 91.8731 173.83 92.0511C173.644 92.2292 173.42 92.3182 173.159 92.3182ZM179.82 102.682C179.001 102.682 178.297 102.489 177.706 102.102C177.115 101.716 176.661 101.184 176.342 100.506C176.024 99.8277 175.865 99.053 175.865 98.1818C175.865 97.2955 176.028 96.5133 176.354 95.8352C176.683 95.1534 177.142 94.6212 177.729 94.2386C178.32 93.8523 179.009 93.6591 179.797 93.6591C180.411 93.6591 180.964 93.7727 181.456 94C181.948 94.2273 182.352 94.5455 182.666 94.9545C182.981 95.3636 183.176 95.8409 183.251 96.3864H181.911C181.808 95.9886 181.581 95.6364 181.229 95.3295C180.88 95.0189 180.411 94.8636 179.82 94.8636C179.297 94.8636 178.839 95 178.445 95.2727C178.054 95.5417 177.75 95.9223 177.53 96.4148C177.314 96.9034 177.206 97.4773 177.206 98.1364C177.206 98.8106 177.312 99.3977 177.524 99.8977C177.74 100.398 178.043 100.786 178.433 101.062C178.827 101.339 179.289 101.477 179.82 101.477C180.168 101.477 180.484 101.417 180.768 101.295C181.053 101.174 181.293 101 181.49 100.773C181.687 100.545 181.827 100.273 181.911 99.9545H183.251C183.176 100.47 182.988 100.934 182.689 101.347C182.393 101.756 182.001 102.081 181.513 102.324C181.028 102.562 180.464 102.682 179.82 102.682ZM191.393 95.7273L190.189 96.0682C190.113 95.8674 190.001 95.6723 189.854 95.483C189.71 95.2898 189.513 95.1307 189.263 95.0057C189.013 94.8807 188.693 94.8182 188.303 94.8182C187.768 94.8182 187.323 94.9413 186.967 95.1875C186.615 95.4299 186.439 95.7386 186.439 96.1136C186.439 96.447 186.56 96.7102 186.803 96.9034C187.045 97.0966 187.424 97.2576 187.939 97.3864L189.234 97.7045C190.015 97.8939 190.596 98.1837 190.979 98.5739C191.361 98.9602 191.553 99.4583 191.553 100.068C191.553 100.568 191.409 101.015 191.121 101.409C190.837 101.803 190.439 102.114 189.928 102.341C189.416 102.568 188.821 102.682 188.143 102.682C187.253 102.682 186.517 102.489 185.933 102.102C185.35 101.716 184.981 101.152 184.825 100.409L186.098 100.091C186.219 100.561 186.448 100.913 186.786 101.148C187.126 101.383 187.571 101.5 188.121 101.5C188.746 101.5 189.242 101.367 189.609 101.102C189.981 100.833 190.166 100.511 190.166 100.136C190.166 99.8333 190.06 99.5795 189.848 99.375C189.636 99.1667 189.31 99.0114 188.871 98.9091L187.416 98.5682C186.617 98.3788 186.03 98.0852 185.655 97.6875C185.284 97.286 185.098 96.7841 185.098 96.1818C185.098 95.6894 185.236 95.2538 185.513 94.875C185.793 94.4962 186.174 94.1989 186.655 93.983C187.14 93.767 187.689 93.6591 188.303 93.6591C189.166 93.6591 189.844 93.8485 190.337 94.2273C190.833 94.6061 191.185 95.1061 191.393 95.7273Z" fill="black"/>
</g>
<defs>
<filter id="filter0_d_7_732" x="474" y="35" width="202" height="61" filterUnits="userSpaceOnUse" color-interpolation-filters="sRGB">
<feFlood flood-opacity="0" result="BackgroundImageFix"/>
<feColorMatrix in="SourceAlpha" type="matrix" values="0 0 0 0 0 0 0 0 0 0 0 0 0 0 0 0 0 0 127 0" result="hardAlpha"/>
<feOffset dy="4"/>
<feGaussianBlur stdDeviation="2"/>
<feComposite in2="hardAlpha" operator="out"/>
<feColorMatrix type="matrix" values="0 0 0 0 0 0 0 0 0 0 0 0 0 0 0 0 0 0 0.25 0"/>
<feBlend mode="normal" in2="BackgroundImageFix" result="effect1_dropShadow_7_732"/>
<feBlend mode="normal" in="SourceGraphic" in2="effect1_dropShadow_7_732" result="shape"/>
</filter>
<filter id="filter1_d_7_732" x="214" y="517" width="190" height="56" filterUnits="userSpaceOnUse" color-interpolation-filters="sRGB">
<feFlood flood-opacity="0" result="BackgroundImageFix"/>
<feColorMatrix in="SourceAlpha" type="matrix" values="0 0 0 0 0 0 0 0 0 0 0 0 0 0 0 0 0 0 127 0" result="hardAlpha"/>
<feOffset dy="4"/>
<feGaussianBlur stdDeviation="2"/>
<feComposite in2="hardAlpha" operator="out"/>
<feColorMatrix type="matrix" values="0 0 0 0 0 0 0 0 0 0 0 0 0 0 0 0 0 0 0.25 0"/>
<feBlend mode="normal" in2="BackgroundImageFix" result="effect1_dropShadow_7_732"/>
<feBlend mode="normal" in="SourceGraphic" in2="effect1_dropShadow_7_732" result="shape"/>
</filter>
<filter id="filter2_d_7_732" x="392" y="371" width="130" height="51" filterUnits="userSpaceOnUse" color-interpolation-filters="sRGB">
<feFlood flood-opacity="0" result="BackgroundImageFix"/>
<feColorMatrix in="SourceAlpha" type="matrix" values="0 0 0 0 0 0 0 0 0 0 0 0 0 0 0 0 0 0 127 0" result="hardAlpha"/>
<feOffset dy="4"/>
<feGaussianBlur stdDeviation="2"/>
<feComposite in2="hardAlpha" operator="out"/>
<feColorMatrix type="matrix" values="0 0 0 0 0 0 0 0 0 0 0 0 0 0 0 0 0 0 0.25 0"/>
<feBlend mode="normal" in2="BackgroundImageFix" result="effect1_dropShadow_7_732"/>
<feBlend mode="normal" in="SourceGraphic" in2="effect1_dropShadow_7_732" result="shape"/>
</filter>
<filter id="filter3_d_7_732" x="274" y="154" width="187" height="56" filterUnits="userSpaceOnUse" color-interpolation-filters="sRGB">
<feFlood flood-opacity="0" result="BackgroundImageFix"/>
<feColorMatrix in="SourceAlpha" type="matrix" values="0 0 0 0 0 0 0 0 0 0 0 0 0 0 0 0 0 0 127 0" result="hardAlpha"/>
<feOffset dy="4"/>
<feGaussianBlur stdDeviation="2"/>
<feComposite in2="hardAlpha" operator="out"/>
<feColorMatrix type="matrix" values="0 0 0 0 0 0 0 0 0 0 0 0 0 0 0 0 0 0 0.25 0"/>
<feBlend mode="normal" in2="BackgroundImageFix" result="effect1_dropShadow_7_732"/>
<feBlend mode="normal" in="SourceGraphic" in2="effect1_dropShadow_7_732" result="shape"/>
</filter>
<filter id="filter4_d_7_732" x="42" y="301" width="228" height="56" filterUnits="userSpaceOnUse" color-interpolation-filters="sRGB">
<feFlood flood-opacity="0" result="BackgroundImageFix"/>
<feColorMatrix in="SourceAlpha" type="matrix" values="0 0 0 0 0 0 0 0 0 0 0 0 0 0 0 0 0 0 127 0" result="hardAlpha"/>
<feOffset dy="4"/>
<feGaussianBlur stdDeviation="2"/>
<feComposite in2="hardAlpha" operator="out"/>
<feColorMatrix type="matrix" values="0 0 0 0 0 0 0 0 0 0 0 0 0 0 0 0 0 0 0.25 0"/>
<feBlend mode="normal" in2="BackgroundImageFix" result="effect1_dropShadow_7_732"/>
<feBlend mode="normal" in="SourceGraphic" in2="effect1_dropShadow_7_732" result="shape"/>
</filter>
<filter id="filter5_d_7_732" x="0" y="73" width="222" height="56" filterUnits="userSpaceOnUse" color-interpolation-filters="sRGB">
<feFlood flood-opacity="0" result="BackgroundImageFix"/>
<feColorMatrix in="SourceAlpha" type="matrix" values="0 0 0 0 0 0 0 0 0 0 0 0 0 0 0 0 0 0 127 0" result="hardAlpha"/>
<feOffset dy="4"/>
<feGaussianBlur stdDeviation="2"/>
<feComposite in2="hardAlpha" operator="out"/>
<feColorMatrix type="matrix" values="0 0 0 0 0 0 0 0 0 0 0 0 0 0 0 0 0 0 0.25 0"/>
<feBlend mode="normal" in2="BackgroundImageFix" result="effect1_dropShadow_7_732"/>
<feBlend mode="normal" in="SourceGraphic" in2="effect1_dropShadow_7_732" result="shape"/>
</filter>
</defs>
</svg>
