<svg width="202" height="61" viewBox="0 0 202 61" fill="none" xmlns="http://www.w3.org/2000/svg">
<g filter="url(#filter0_d_7_309)">
<rect x="4" width="194" height="53" rx="26.5" fill="white" shape-rendering="crispEdges"/>
<mask id="mask0_7_309" style="mask-type:alpha" maskUnits="userSpaceOnUse" x="29" y="14" width="24" height="25">
<rect x="29" y="14.5" width="24" height="24" fill="#D9D9D9"/>
</mask>
<g mask="url(#mask0_7_309)">
<path d="M31 34.5L41 18.5L51 34.5H31ZM34.6 32.5H47.4L41 22.25L34.6 32.5Z" fill="#1C1B1F"/>
</g>
<path d="M59.4091 32V20.3636H60.8182V25.5455H67.0227V20.3636H68.4318V32H67.0227V26.7955H60.8182V32H59.4091ZM74.7301 32.1818C73.8892 32.1818 73.1638 31.9962 72.554 31.625C71.9479 31.25 71.4801 30.7273 71.1506 30.0568C70.8248 29.3826 70.6619 28.5985 70.6619 27.7045C70.6619 26.8106 70.8248 26.0227 71.1506 25.3409C71.4801 24.6553 71.9384 24.1212 72.5256 23.7386C73.1165 23.3523 73.8059 23.1591 74.5938 23.1591C75.0483 23.1591 75.4972 23.2348 75.9403 23.3864C76.3835 23.5379 76.7869 23.7841 77.1506 24.125C77.5142 24.4621 77.804 24.9091 78.0199 25.4659C78.2358 26.0227 78.3438 26.7083 78.3438 27.5227V28.0909H71.6165V26.9318H76.9801C76.9801 26.4394 76.8816 26 76.6847 25.6136C76.4915 25.2273 76.215 24.9223 75.8551 24.6989C75.4991 24.4754 75.0786 24.3636 74.5938 24.3636C74.0597 24.3636 73.5975 24.4962 73.2074 24.7614C72.821 25.0227 72.5237 25.3636 72.3153 25.7841C72.107 26.2045 72.0028 26.6553 72.0028 27.1364V27.9091C72.0028 28.5682 72.1165 29.1269 72.3438 29.5852C72.5748 30.0398 72.8949 30.3864 73.304 30.625C73.7131 30.8598 74.1884 30.9773 74.7301 30.9773C75.0824 30.9773 75.4006 30.928 75.6847 30.8295C75.9725 30.7273 76.2206 30.5758 76.429 30.375C76.6373 30.1705 76.7983 29.9167 76.9119 29.6136L78.2074 29.9773C78.071 30.4167 77.8419 30.803 77.5199 31.1364C77.1979 31.4659 76.8002 31.7235 76.3267 31.9091C75.8532 32.0909 75.321 32.1818 74.7301 32.1818ZM82.9517 32.2045C82.3987 32.2045 81.8968 32.1004 81.446 31.892C80.9953 31.6799 80.6373 31.375 80.3722 30.9773C80.107 30.5758 79.9744 30.0909 79.9744 29.5227C79.9744 29.0227 80.0729 28.6174 80.2699 28.3068C80.4669 27.9924 80.7301 27.7462 81.0597 27.5682C81.3892 27.3902 81.7528 27.2576 82.1506 27.1705C82.5521 27.0795 82.9555 27.0076 83.3608 26.9545C83.8911 26.8864 84.321 26.8352 84.6506 26.8011C84.9839 26.7633 85.2263 26.7008 85.3778 26.6136C85.5331 26.5265 85.6108 26.375 85.6108 26.1591V26.1136C85.6108 25.553 85.4574 25.1174 85.1506 24.8068C84.8475 24.4962 84.3873 24.3409 83.7699 24.3409C83.1297 24.3409 82.6278 24.4811 82.2642 24.7614C81.9006 25.0417 81.6449 25.3409 81.4972 25.6591L80.2244 25.2045C80.4517 24.6742 80.7547 24.2614 81.1335 23.9659C81.5161 23.6667 81.9328 23.4583 82.3835 23.3409C82.8381 23.2197 83.285 23.1591 83.7244 23.1591C84.0047 23.1591 84.3267 23.1932 84.6903 23.2614C85.0578 23.3258 85.4119 23.4602 85.7528 23.6648C86.0975 23.8693 86.3835 24.178 86.6108 24.5909C86.8381 25.0038 86.9517 25.5568 86.9517 26.25V32H85.6108V30.8182H85.5426C85.4517 31.0076 85.3002 31.2102 85.0881 31.4261C84.8759 31.642 84.5938 31.8258 84.2415 31.9773C83.8892 32.1288 83.4593 32.2045 82.9517 32.2045ZM83.1562 31C83.6866 31 84.1335 30.8958 84.4972 30.6875C84.8646 30.4792 85.1411 30.2102 85.3267 29.8807C85.5161 29.5511 85.6108 29.2045 85.6108 28.8409V27.6136C85.554 27.6818 85.429 27.7443 85.2358 27.8011C85.0464 27.8542 84.8267 27.9015 84.5767 27.9432C84.3305 27.9811 84.09 28.0152 83.8551 28.0455C83.6241 28.072 83.4366 28.0947 83.2926 28.1136C82.9441 28.1591 82.6184 28.233 82.3153 28.3352C82.0161 28.4337 81.7737 28.5833 81.5881 28.7841C81.4063 28.9811 81.3153 29.25 81.3153 29.5909C81.3153 30.0568 81.4877 30.4091 81.8324 30.6477C82.1809 30.8826 82.6222 31 83.1562 31ZM90.7401 20.3636V32H89.3991V20.3636H90.7401ZM96.9915 23.2727V24.4091H92.4688V23.2727H96.9915ZM93.7869 21.1818H95.1278V29.5C95.1278 29.8788 95.1828 30.1629 95.2926 30.3523C95.4063 30.5379 95.5502 30.6629 95.7244 30.7273C95.9025 30.7879 96.09 30.8182 96.2869 30.8182C96.4347 30.8182 96.5559 30.8106 96.6506 30.7955C96.7453 30.7765 96.821 30.7614 96.8778 30.75L97.1506 31.9545C97.0597 31.9886 96.9328 32.0227 96.7699 32.0568C96.607 32.0947 96.4006 32.1136 96.1506 32.1136C95.7718 32.1136 95.4006 32.0322 95.0369 31.8693C94.6771 31.7064 94.3778 31.4583 94.1392 31.125C93.9044 30.7917 93.7869 30.3712 93.7869 29.8636V21.1818ZM100.537 26.75V32H99.196V20.3636H100.537V24.6364H100.651C100.855 24.1856 101.162 23.8277 101.571 23.5625C101.984 23.2936 102.533 23.1591 103.219 23.1591C103.813 23.1591 104.334 23.2784 104.781 23.517C105.228 23.7519 105.575 24.1136 105.821 24.6023C106.071 25.0871 106.196 25.7045 106.196 26.4545V32H104.855V26.5455C104.855 25.8523 104.675 25.3163 104.315 24.9375C103.959 24.5549 103.465 24.3636 102.832 24.3636C102.393 24.3636 101.999 24.4564 101.651 24.642C101.306 24.8277 101.033 25.0985 100.832 25.4545C100.635 25.8106 100.537 26.2424 100.537 26.75ZM112.695 21.6136V20.3636H121.422V21.6136H117.763V32H116.354V21.6136H112.695ZM122.509 32V23.2727H123.804V24.5909H123.895C124.054 24.1591 124.342 23.8087 124.759 23.5398C125.175 23.2708 125.645 23.1364 126.168 23.1364C126.266 23.1364 126.389 23.1383 126.537 23.142C126.685 23.1458 126.796 23.1515 126.872 23.1591V24.5227C126.827 24.5114 126.723 24.4943 126.56 24.4716C126.401 24.4451 126.232 24.4318 126.054 24.4318C125.63 24.4318 125.251 24.5208 124.918 24.6989C124.588 24.8731 124.327 25.1155 124.134 25.4261C123.944 25.733 123.849 26.0833 123.849 26.4773V32H122.509ZM128.462 32V23.2727H129.803V32H128.462ZM129.143 21.8182C128.882 21.8182 128.657 21.7292 128.467 21.5511C128.282 21.3731 128.189 21.1591 128.189 20.9091C128.189 20.6591 128.282 20.4451 128.467 20.267C128.657 20.089 128.882 20 129.143 20C129.405 20 129.628 20.089 129.814 20.267C130.003 20.4451 130.098 20.6591 130.098 20.9091C130.098 21.1591 130.003 21.3731 129.814 21.5511C129.628 21.7292 129.405 21.8182 129.143 21.8182ZM134.827 32.2045C134.274 32.2045 133.772 32.1004 133.321 31.892C132.87 31.6799 132.512 31.375 132.247 30.9773C131.982 30.5758 131.849 30.0909 131.849 29.5227C131.849 29.0227 131.948 28.6174 132.145 28.3068C132.342 27.9924 132.605 27.7462 132.935 27.5682C133.264 27.3902 133.628 27.2576 134.026 27.1705C134.427 27.0795 134.83 27.0076 135.236 26.9545C135.766 26.8864 136.196 26.8352 136.526 26.8011C136.859 26.7633 137.101 26.7008 137.253 26.6136C137.408 26.5265 137.486 26.375 137.486 26.1591V26.1136C137.486 25.553 137.332 25.1174 137.026 24.8068C136.723 24.4962 136.262 24.3409 135.645 24.3409C135.005 24.3409 134.503 24.4811 134.139 24.7614C133.776 25.0417 133.52 25.3409 133.372 25.6591L132.099 25.2045C132.327 24.6742 132.63 24.2614 133.009 23.9659C133.391 23.6667 133.808 23.4583 134.259 23.3409C134.713 23.2197 135.16 23.1591 135.599 23.1591C135.88 23.1591 136.202 23.1932 136.565 23.2614C136.933 23.3258 137.287 23.4602 137.628 23.6648C137.973 23.8693 138.259 24.178 138.486 24.5909C138.713 25.0038 138.827 25.5568 138.827 26.25V32H137.486V30.8182H137.418C137.327 31.0076 137.175 31.2102 136.963 31.4261C136.751 31.642 136.469 31.8258 136.116 31.9773C135.764 32.1288 135.334 32.2045 134.827 32.2045ZM135.031 31C135.562 31 136.009 30.8958 136.372 30.6875C136.74 30.4792 137.016 30.2102 137.202 29.8807C137.391 29.5511 137.486 29.2045 137.486 28.8409V27.6136C137.429 27.6818 137.304 27.7443 137.111 27.8011C136.921 27.8542 136.702 27.9015 136.452 27.9432C136.205 27.9811 135.965 28.0152 135.73 28.0455C135.499 28.072 135.312 28.0947 135.168 28.1136C134.819 28.1591 134.493 28.233 134.19 28.3352C133.891 28.4337 133.649 28.5833 133.463 28.7841C133.281 28.9811 133.19 29.25 133.19 29.5909C133.19 30.0568 133.363 30.4091 133.707 30.6477C134.056 30.8826 134.497 31 135.031 31ZM142.615 26.75V32H141.274V23.2727H142.57V24.6364H142.683C142.888 24.1932 143.198 23.8371 143.615 23.5682C144.032 23.2955 144.57 23.1591 145.229 23.1591C145.82 23.1591 146.337 23.2803 146.78 23.5227C147.223 23.7614 147.568 24.125 147.814 24.6136C148.06 25.0985 148.183 25.7121 148.183 26.4545V32H146.842V26.5455C146.842 25.8598 146.664 25.3258 146.308 24.9432C145.952 24.5568 145.464 24.3636 144.842 24.3636C144.414 24.3636 144.032 24.4564 143.695 24.642C143.361 24.8277 143.098 25.0985 142.905 25.4545C142.712 25.8106 142.615 26.2424 142.615 26.75ZM154.156 35.4545C153.509 35.4545 152.952 35.3712 152.486 35.2045C152.02 35.0417 151.632 34.8258 151.321 34.5568C151.014 34.2917 150.77 34.0076 150.588 33.7045L151.656 32.9545C151.777 33.1136 151.931 33.2955 152.116 33.5C152.302 33.7083 152.556 33.8883 152.878 34.0398C153.204 34.1951 153.63 34.2727 154.156 34.2727C154.861 34.2727 155.442 34.1023 155.901 33.7614C156.359 33.4205 156.588 32.8864 156.588 32.1591V30.3864H156.474C156.376 30.5455 156.236 30.7424 156.054 30.9773C155.876 31.2083 155.618 31.4148 155.281 31.5966C154.948 31.7746 154.497 31.8636 153.929 31.8636C153.224 31.8636 152.592 31.697 152.031 31.3636C151.474 31.0303 151.033 30.5455 150.707 29.9091C150.385 29.2727 150.224 28.5 150.224 27.5909C150.224 26.697 150.382 25.9186 150.696 25.2557C151.01 24.589 151.448 24.0739 152.009 23.7102C152.569 23.3428 153.217 23.1591 153.952 23.1591C154.52 23.1591 154.971 23.2538 155.304 23.4432C155.641 23.6288 155.899 23.8409 156.077 24.0795C156.259 24.3144 156.399 24.5076 156.497 24.6591H156.634V23.2727H157.929V32.25C157.929 33 157.759 33.6098 157.418 34.0795C157.08 34.553 156.626 34.8996 156.054 35.1193C155.486 35.3428 154.853 35.4545 154.156 35.4545ZM154.111 30.6591C154.649 30.6591 155.103 30.536 155.474 30.2898C155.846 30.0436 156.128 29.6894 156.321 29.2273C156.514 28.7652 156.611 28.2121 156.611 27.5682C156.611 26.9394 156.516 26.3845 156.327 25.9034C156.137 25.4223 155.857 25.0455 155.486 24.7727C155.115 24.5 154.656 24.3636 154.111 24.3636C153.543 24.3636 153.069 24.5076 152.69 24.7955C152.315 25.0833 152.033 25.4697 151.844 25.9545C151.658 26.4394 151.565 26.9773 151.565 27.5682C151.565 28.1742 151.66 28.7102 151.849 29.1761C152.043 29.6383 152.327 30.0019 152.702 30.267C153.08 30.5284 153.55 30.6591 154.111 30.6591ZM161.724 20.3636V32H160.384V20.3636H161.724ZM167.839 32.1818C166.999 32.1818 166.273 31.9962 165.663 31.625C165.057 31.25 164.589 30.7273 164.26 30.0568C163.934 29.3826 163.771 28.5985 163.771 27.7045C163.771 26.8106 163.934 26.0227 164.26 25.3409C164.589 24.6553 165.048 24.1212 165.635 23.7386C166.226 23.3523 166.915 23.1591 167.703 23.1591C168.158 23.1591 168.607 23.2348 169.05 23.3864C169.493 23.5379 169.896 23.7841 170.26 24.125C170.624 24.4621 170.913 24.9091 171.129 25.4659C171.345 26.0227 171.453 26.7083 171.453 27.5227V28.0909H164.726V26.9318H170.089C170.089 26.4394 169.991 26 169.794 25.6136C169.601 25.2273 169.324 24.9223 168.964 24.6989C168.608 24.4754 168.188 24.3636 167.703 24.3636C167.169 24.3636 166.707 24.4962 166.317 24.7614C165.93 25.0227 165.633 25.3636 165.425 25.7841C165.216 26.2045 165.112 26.6553 165.112 27.1364V27.9091C165.112 28.5682 165.226 29.1269 165.453 29.5852C165.684 30.0398 166.004 30.3864 166.413 30.625C166.822 30.8598 167.298 30.9773 167.839 30.9773C168.192 30.9773 168.51 30.928 168.794 30.8295C169.082 30.7273 169.33 30.5758 169.538 30.375C169.747 30.1705 169.908 29.9167 170.021 29.6136L171.317 29.9773C171.18 30.4167 170.951 30.803 170.629 31.1364C170.307 31.4659 169.91 31.7235 169.436 31.9091C168.963 32.0909 168.43 32.1818 167.839 32.1818Z" fill="black"/>
</g>
<defs>
<filter id="filter0_d_7_309" x="0" y="0" width="202" height="61" filterUnits="userSpaceOnUse" color-interpolation-filters="sRGB">
<feFlood flood-opacity="0" result="BackgroundImageFix"/>
<feColorMatrix in="SourceAlpha" type="matrix" values="0 0 0 0 0 0 0 0 0 0 0 0 0 0 0 0 0 0 127 0" result="hardAlpha"/>
<feOffset dy="4"/>
<feGaussianBlur stdDeviation="2"/>
<feComposite in2="hardAlpha" operator="out"/>
<feColorMatrix type="matrix" values="0 0 0 0 0 0 0 0 0 0 0 0 0 0 0 0 0 0 0.25 0"/>
<feBlend mode="normal" in2="BackgroundImageFix" result="effect1_dropShadow_7_309"/>
<feBlend mode="normal" in="SourceGraphic" in2="effect1_dropShadow_7_309" result="shape"/>
</filter>
</defs>
</svg>
