<svg width="130" height="51" viewBox="0 0 130 51" fill="none" xmlns="http://www.w3.org/2000/svg">
<g filter="url(#filter0_d_7_50)">
<rect x="4" width="122" height="43" rx="21.5" fill="white" shape-rendering="crispEdges"/>
<path d="M36 28.5C34.05 28.5 32.3957 27.8207 31.037 26.462C29.679 25.104 29 23.45 29 21.5C29 19.55 29.679 17.8957 31.037 16.537C32.3957 15.179 34.05 14.5 36 14.5C37.95 14.5 39.6043 15.179 40.963 16.537C42.321 17.8957 43 19.55 43 21.5C43 23.45 42.321 25.104 40.963 26.462C39.6043 27.8207 37.95 28.5 36 28.5ZM43 28.4V26.4C44.1667 26.1667 45.125 25.5917 45.875 24.675C46.625 23.7583 47 22.7 47 21.5C47 20.3 46.625 19.2417 45.875 18.325C45.125 17.4083 44.1667 16.8333 43 16.6V14.6C44.7333 14.8333 46.1667 15.604 47.3 16.912C48.4333 18.2207 49 19.75 49 21.5C49 23.25 48.4333 24.779 47.3 26.087C46.1667 27.3957 44.7333 28.1667 43 28.4ZM36 26.5C37.3833 26.5 38.5627 26.0123 39.538 25.037C40.5127 24.0623 41 22.8833 41 21.5C41 20.1167 40.5127 18.9373 39.538 17.962C38.5627 16.9873 37.3833 16.5 36 16.5C34.6167 16.5 33.4377 16.9873 32.463 17.962C31.4877 18.9373 31 20.1167 31 21.5C31 22.8833 31.4877 24.0623 32.463 25.037C33.4377 26.0123 34.6167 26.5 36 26.5Z" fill="#1C1B1F"/>
<path d="M65.2273 21.1818C65.2273 22.4091 65.0057 23.4697 64.5625 24.3636C64.1193 25.2576 63.5114 25.947 62.7386 26.4318C61.9659 26.9167 61.0833 27.1591 60.0909 27.1591C59.0985 27.1591 58.2159 26.9167 57.4432 26.4318C56.6705 25.947 56.0625 25.2576 55.6193 24.3636C55.1761 23.4697 54.9545 22.4091 54.9545 21.1818C54.9545 19.9545 55.1761 18.8939 55.6193 18C56.0625 17.1061 56.6705 16.4167 57.4432 15.9318C58.2159 15.447 59.0985 15.2045 60.0909 15.2045C61.0833 15.2045 61.9659 15.447 62.7386 15.9318C63.5114 16.4167 64.1193 17.1061 64.5625 18C65.0057 18.8939 65.2273 19.9545 65.2273 21.1818ZM63.8636 21.1818C63.8636 20.1742 63.6951 19.3239 63.358 18.6307C63.0246 17.9375 62.572 17.4129 62 17.0568C61.4318 16.7008 60.7955 16.5227 60.0909 16.5227C59.3864 16.5227 58.7481 16.7008 58.1761 17.0568C57.608 17.4129 57.1553 17.9375 56.8182 18.6307C56.4848 19.3239 56.3182 20.1742 56.3182 21.1818C56.3182 22.1894 56.4848 23.0398 56.8182 23.733C57.1553 24.4261 57.608 24.9508 58.1761 25.3068C58.7481 25.6629 59.3864 25.8409 60.0909 25.8409C60.7955 25.8409 61.4318 25.6629 62 25.3068C62.572 24.9508 63.0246 24.4261 63.358 23.733C63.6951 23.0398 63.8636 22.1894 63.8636 21.1818ZM71.3011 18.2727V19.4091H66.5966V18.2727H71.3011ZM68.0057 27V17.0682C68.0057 16.5682 68.1231 16.1515 68.358 15.8182C68.5928 15.4848 68.8977 15.2348 69.2727 15.0682C69.6477 14.9015 70.0436 14.8182 70.4602 14.8182C70.7898 14.8182 71.0587 14.8447 71.267 14.8977C71.4754 14.9508 71.6307 15 71.733 15.0455L71.3466 16.2045C71.2784 16.1818 71.1837 16.1534 71.0625 16.1193C70.9451 16.0852 70.7898 16.0682 70.5966 16.0682C70.1534 16.0682 69.8333 16.1799 69.6364 16.4034C69.4432 16.6269 69.3466 16.9545 69.3466 17.3864V27H68.0057ZM77.0668 18.2727V19.4091H72.3622V18.2727H77.0668ZM73.7713 27V17.0682C73.7713 16.5682 73.8887 16.1515 74.1236 15.8182C74.3584 15.4848 74.6634 15.2348 75.0384 15.0682C75.4134 14.9015 75.8092 14.8182 76.2259 14.8182C76.5554 14.8182 76.8243 14.8447 77.0327 14.8977C77.241 14.9508 77.3963 15 77.4986 15.0455L77.1122 16.2045C77.044 16.1818 76.9493 16.1534 76.8281 16.1193C76.7107 16.0852 76.5554 16.0682 76.3622 16.0682C75.919 16.0682 75.599 16.1799 75.402 16.4034C75.2088 16.6269 75.1122 16.9545 75.1122 17.3864V27H73.7713ZM82.2457 27.1818C81.4048 27.1818 80.6795 26.9962 80.0696 26.625C79.4635 26.25 78.9957 25.7273 78.6662 25.0568C78.3404 24.3826 78.1776 23.5985 78.1776 22.7045C78.1776 21.8106 78.3404 21.0227 78.6662 20.3409C78.9957 19.6553 79.4541 19.1212 80.0412 18.7386C80.6321 18.3523 81.3215 18.1591 82.1094 18.1591C82.5639 18.1591 83.0128 18.2348 83.456 18.3864C83.8991 18.5379 84.3026 18.7841 84.6662 19.125C85.0298 19.4621 85.3196 19.9091 85.5355 20.4659C85.7514 21.0227 85.8594 21.7083 85.8594 22.5227V23.0909H79.1321V21.9318H84.4957C84.4957 21.4394 84.3973 21 84.2003 20.6136C84.0071 20.2273 83.7306 19.9223 83.3707 19.6989C83.0147 19.4754 82.5942 19.3636 82.1094 19.3636C81.5753 19.3636 81.1132 19.4962 80.723 19.7614C80.3366 20.0227 80.0393 20.3636 79.831 20.7841C79.6226 21.2045 79.5185 21.6553 79.5185 22.1364V22.9091C79.5185 23.5682 79.6321 24.1269 79.8594 24.5852C80.0904 25.0398 80.4105 25.3864 80.8196 25.625C81.2287 25.8598 81.7041 25.9773 82.2457 25.9773C82.598 25.9773 82.9162 25.928 83.2003 25.8295C83.4882 25.7273 83.7363 25.5758 83.9446 25.375C84.1529 25.1705 84.3139 24.9167 84.4276 24.6136L85.723 24.9773C85.5866 25.4167 85.3575 25.803 85.0355 26.1364C84.7135 26.4659 84.3158 26.7235 83.8423 26.9091C83.3688 27.0909 82.8366 27.1818 82.2457 27.1818ZM87.8991 27V18.2727H89.1946V19.5909H89.2855C89.4446 19.1591 89.7325 18.8087 90.1491 18.5398C90.5658 18.2708 91.0355 18.1364 91.5582 18.1364C91.6567 18.1364 91.7798 18.1383 91.9276 18.142C92.0753 18.1458 92.187 18.1515 92.2628 18.1591V19.5227C92.2173 19.5114 92.1132 19.4943 91.9503 19.4716C91.7912 19.4451 91.6226 19.4318 91.4446 19.4318C91.0204 19.4318 90.6416 19.5208 90.3082 19.6989C89.9787 19.8731 89.7173 20.1155 89.5241 20.4261C89.3348 20.733 89.2401 21.0833 89.2401 21.4773V27H87.8991ZM100.034 20.2273L98.8295 20.5682C98.7538 20.3674 98.642 20.1723 98.4943 19.983C98.3504 19.7898 98.1534 19.6307 97.9034 19.5057C97.6534 19.3807 97.3333 19.3182 96.9432 19.3182C96.4091 19.3182 95.964 19.4413 95.608 19.6875C95.2557 19.9299 95.0795 20.2386 95.0795 20.6136C95.0795 20.947 95.2008 21.2102 95.4432 21.4034C95.6856 21.5966 96.0644 21.7576 96.5795 21.8864L97.875 22.2045C98.6553 22.3939 99.2367 22.6837 99.6193 23.0739C100.002 23.4602 100.193 23.9583 100.193 24.5682C100.193 25.0682 100.049 25.5152 99.7614 25.9091C99.4773 26.303 99.0795 26.6136 98.5682 26.8409C98.0568 27.0682 97.4621 27.1818 96.7841 27.1818C95.8939 27.1818 95.1572 26.9886 94.5739 26.6023C93.9905 26.2159 93.6212 25.6515 93.4659 24.9091L94.7386 24.5909C94.8598 25.0606 95.089 25.4129 95.4261 25.6477C95.767 25.8826 96.2121 26 96.7614 26C97.3864 26 97.8826 25.8674 98.25 25.6023C98.6212 25.3333 98.8068 25.0114 98.8068 24.6364C98.8068 24.3333 98.7008 24.0795 98.4886 23.875C98.2765 23.6667 97.9508 23.5114 97.5114 23.4091L96.0568 23.0682C95.2576 22.8788 94.6705 22.5852 94.2955 22.1875C93.9242 21.786 93.7386 21.2841 93.7386 20.6818C93.7386 20.1894 93.8769 19.7538 94.1534 19.375C94.4337 18.9962 94.8144 18.6989 95.2955 18.483C95.7803 18.267 96.3295 18.1591 96.9432 18.1591C97.8068 18.1591 98.4848 18.3485 98.9773 18.7273C99.4735 19.1061 99.8258 19.6061 100.034 20.2273Z" fill="black"/>
</g>
<defs>
<filter id="filter0_d_7_50" x="0" y="0" width="130" height="51" filterUnits="userSpaceOnUse" color-interpolation-filters="sRGB">
<feFlood flood-opacity="0" result="BackgroundImageFix"/>
<feColorMatrix in="SourceAlpha" type="matrix" values="0 0 0 0 0 0 0 0 0 0 0 0 0 0 0 0 0 0 127 0" result="hardAlpha"/>
<feOffset dy="4"/>
<feGaussianBlur stdDeviation="2"/>
<feComposite in2="hardAlpha" operator="out"/>
<feColorMatrix type="matrix" values="0 0 0 0 0 0 0 0 0 0 0 0 0 0 0 0 0 0 0.25 0"/>
<feBlend mode="normal" in2="BackgroundImageFix" result="effect1_dropShadow_7_50"/>
<feBlend mode="normal" in="SourceGraphic" in2="effect1_dropShadow_7_50" result="shape"/>
</filter>
</defs>
</svg>
