<svg width="187" height="56" viewBox="0 0 187 56" fill="none" xmlns="http://www.w3.org/2000/svg">
<g filter="url(#filter0_d_7_41)">
<rect x="4" width="179" height="48" rx="24" fill="white" shape-rendering="crispEdges"/>
<mask id="mask0_7_41" style="mask-type:alpha" maskUnits="userSpaceOnUse" x="29" y="12" width="24" height="24">
<rect x="29" y="12" width="24" height="24" fill="#D9D9D9"/>
</mask>
<g mask="url(#mask0_7_41)">
<path d="M41 22H46V20H41V22ZM41 28H46V26H41V28ZM38 23C38.55 23 39.021 22.804 39.413 22.412C39.8043 22.0207 40 21.55 40 21C40 20.45 39.8043 19.979 39.413 19.587C39.021 19.1957 38.55 19 38 19C37.45 19 36.9793 19.1957 36.588 19.587C36.196 19.979 36 20.45 36 21C36 21.55 36.196 22.0207 36.588 22.412C36.9793 22.804 37.45 23 38 23ZM38 29C38.55 29 39.021 28.8043 39.413 28.413C39.8043 28.021 40 27.55 40 27C40 26.45 39.8043 25.979 39.413 25.587C39.021 25.1957 38.55 25 38 25C37.45 25 36.9793 25.1957 36.588 25.587C36.196 25.979 36 26.45 36 27C36 27.55 36.196 28.021 36.588 28.413C36.9793 28.8043 37.45 29 38 29ZM34 33C33.45 33 32.979 32.8043 32.587 32.413C32.1957 32.021 32 31.55 32 31V17C32 16.45 32.1957 15.979 32.587 15.587C32.979 15.1957 33.45 15 34 15H48C48.55 15 49.021 15.1957 49.413 15.587C49.8043 15.979 50 16.45 50 17V31C50 31.55 49.8043 32.021 49.413 32.413C49.021 32.8043 48.55 33 48 33H34ZM34 31H48V17H34V31Z" fill="#1C1B1F"/>
</g>
<path d="M59.4091 29.5V17.8636H63.3409C64.2538 17.8636 65 18.0284 65.5795 18.358C66.1629 18.6837 66.5947 19.125 66.875 19.6818C67.1553 20.2386 67.2955 20.8598 67.2955 21.5455C67.2955 22.2311 67.1553 22.8542 66.875 23.4148C66.5985 23.9754 66.1705 24.4223 65.5909 24.7557C65.0114 25.0852 64.2689 25.25 63.3636 25.25H60.5455V24H63.3182C63.9432 24 64.4451 23.892 64.8239 23.6761C65.2027 23.4602 65.4773 23.1686 65.6477 22.8011C65.822 22.4299 65.9091 22.0114 65.9091 21.5455C65.9091 21.0795 65.822 20.6629 65.6477 20.2955C65.4773 19.928 65.2008 19.6402 64.8182 19.4318C64.4356 19.2197 63.928 19.1136 63.2955 19.1136H60.8182V29.5H59.4091ZM72.8352 29.6818C72.0473 29.6818 71.3561 29.4943 70.7614 29.1193C70.1705 28.7443 69.7083 28.2197 69.375 27.5455C69.0455 26.8712 68.8807 26.0833 68.8807 25.1818C68.8807 24.2727 69.0455 23.4792 69.375 22.8011C69.7083 22.1231 70.1705 21.5966 70.7614 21.2216C71.3561 20.8466 72.0473 20.6591 72.8352 20.6591C73.6231 20.6591 74.3125 20.8466 74.9034 21.2216C75.4981 21.5966 75.9602 22.1231 76.2898 22.8011C76.6231 23.4792 76.7898 24.2727 76.7898 25.1818C76.7898 26.0833 76.6231 26.8712 76.2898 27.5455C75.9602 28.2197 75.4981 28.7443 74.9034 29.1193C74.3125 29.4943 73.6231 29.6818 72.8352 29.6818ZM72.8352 28.4773C73.4337 28.4773 73.9261 28.3239 74.3125 28.017C74.6989 27.7102 74.9848 27.3068 75.1705 26.8068C75.3561 26.3068 75.4489 25.7652 75.4489 25.1818C75.4489 24.5985 75.3561 24.0549 75.1705 23.5511C74.9848 23.0473 74.6989 22.6402 74.3125 22.3295C73.9261 22.0189 73.4337 21.8636 72.8352 21.8636C72.2367 21.8636 71.7443 22.0189 71.358 22.3295C70.9716 22.6402 70.6856 23.0473 70.5 23.5511C70.3144 24.0549 70.2216 24.5985 70.2216 25.1818C70.2216 25.7652 70.3144 26.3068 70.5 26.8068C70.6856 27.3068 70.9716 27.7102 71.358 28.017C71.7443 28.3239 72.2367 28.4773 72.8352 28.4773ZM78.8366 29.5V20.7727H80.1776V29.5H78.8366ZM79.5185 19.3182C79.2571 19.3182 79.0317 19.2292 78.8423 19.0511C78.6567 18.8731 78.5639 18.6591 78.5639 18.4091C78.5639 18.1591 78.6567 17.9451 78.8423 17.767C79.0317 17.589 79.2571 17.5 79.5185 17.5C79.7798 17.5 80.0033 17.589 80.1889 17.767C80.3783 17.9451 80.473 18.1591 80.473 18.4091C80.473 18.6591 80.3783 18.8731 80.1889 19.0511C80.0033 19.2292 79.7798 19.3182 79.5185 19.3182ZM83.9744 24.25V29.5H82.6335V20.7727H83.929V22.1364H84.0426C84.2472 21.6932 84.5578 21.3371 84.9744 21.0682C85.3911 20.7955 85.929 20.6591 86.5881 20.6591C87.179 20.6591 87.696 20.7803 88.1392 21.0227C88.5824 21.2614 88.9271 21.625 89.1733 22.1136C89.4195 22.5985 89.5426 23.2121 89.5426 23.9545V29.5H88.2017V24.0455C88.2017 23.3598 88.0237 22.8258 87.6676 22.4432C87.3116 22.0568 86.8229 21.8636 86.2017 21.8636C85.7737 21.8636 85.3911 21.9564 85.054 22.142C84.7206 22.3277 84.4574 22.5985 84.2642 22.9545C84.071 23.3106 83.9744 23.7424 83.9744 24.25ZM95.7884 20.7727V21.9091H91.2656V20.7727H95.7884ZM92.5838 18.6818H93.9247V27C93.9247 27.3788 93.9796 27.6629 94.0895 27.8523C94.2031 28.0379 94.3471 28.1629 94.5213 28.2273C94.6993 28.2879 94.8868 28.3182 95.0838 28.3182C95.2315 28.3182 95.3527 28.3106 95.4474 28.2955C95.5421 28.2765 95.6179 28.2614 95.6747 28.25L95.9474 29.4545C95.8565 29.4886 95.7296 29.5227 95.5668 29.5568C95.4039 29.5947 95.1974 29.6136 94.9474 29.6136C94.5687 29.6136 94.1974 29.5322 93.8338 29.3693C93.474 29.2064 93.1747 28.9583 92.9361 28.625C92.7012 28.2917 92.5838 27.8712 92.5838 27.3636V18.6818ZM108.851 20.7727C108.783 20.197 108.506 19.75 108.021 19.4318C107.536 19.1136 106.942 18.9545 106.237 18.9545C105.722 18.9545 105.271 19.0379 104.885 19.2045C104.502 19.3712 104.203 19.6004 103.987 19.892C103.775 20.1837 103.669 20.5152 103.669 20.8864C103.669 21.197 103.743 21.464 103.891 21.6875C104.042 21.9072 104.235 22.0909 104.47 22.2386C104.705 22.3826 104.951 22.5019 105.209 22.5966C105.466 22.6875 105.703 22.7614 105.919 22.8182L107.101 23.1364C107.404 23.2159 107.741 23.3258 108.112 23.4659C108.487 23.6061 108.845 23.7973 109.186 24.0398C109.531 24.2784 109.815 24.5852 110.038 24.9602C110.262 25.3352 110.374 25.7955 110.374 26.3409C110.374 26.9697 110.209 27.5379 109.879 28.0455C109.554 28.553 109.076 28.9564 108.447 29.2557C107.822 29.5549 107.063 29.7045 106.169 29.7045C105.336 29.7045 104.614 29.5701 104.004 29.3011C103.398 29.0322 102.921 28.6572 102.572 28.1761C102.228 27.6951 102.033 27.1364 101.987 26.5H103.442C103.48 26.9394 103.627 27.303 103.885 27.5909C104.146 27.875 104.476 28.0871 104.874 28.2273C105.275 28.3636 105.707 28.4318 106.169 28.4318C106.707 28.4318 107.19 28.3447 107.618 28.1705C108.046 27.9924 108.385 27.7462 108.635 27.4318C108.885 27.1136 109.01 26.7424 109.01 26.3182C109.01 25.9318 108.902 25.6174 108.686 25.375C108.47 25.1326 108.186 24.9356 107.834 24.7841C107.482 24.6326 107.101 24.5 106.692 24.3864L105.26 23.9773C104.351 23.7159 103.631 23.3428 103.101 22.858C102.571 22.3731 102.305 21.7386 102.305 20.9545C102.305 20.303 102.482 19.7348 102.834 19.25C103.19 18.7614 103.667 18.3826 104.266 18.1136C104.868 17.8409 105.54 17.7045 106.283 17.7045C107.033 17.7045 107.699 17.839 108.283 18.108C108.866 18.3731 109.328 18.7367 109.669 19.1989C110.014 19.661 110.196 20.1856 110.214 20.7727H108.851ZM113.372 32.7727C113.145 32.7727 112.942 32.7538 112.764 32.7159C112.586 32.6818 112.463 32.6477 112.395 32.6136L112.736 31.4318C113.062 31.5152 113.349 31.5455 113.599 31.5227C113.849 31.5 114.071 31.3883 114.264 31.1875C114.461 30.9905 114.641 30.6705 114.804 30.2273L115.054 29.5455L111.827 20.7727H113.281L115.69 27.7273H115.781L118.19 20.7727H119.645L115.94 30.7727C115.774 31.2235 115.567 31.5966 115.321 31.892C115.075 32.1913 114.789 32.4129 114.463 32.5568C114.141 32.7008 113.777 32.7727 113.372 32.7727ZM127.597 22.7273L126.392 23.0682C126.316 22.8674 126.205 22.6723 126.057 22.483C125.913 22.2898 125.716 22.1307 125.466 22.0057C125.216 21.8807 124.896 21.8182 124.506 21.8182C123.972 21.8182 123.527 21.9413 123.17 22.1875C122.818 22.4299 122.642 22.7386 122.642 23.1136C122.642 23.447 122.763 23.7102 123.006 23.9034C123.248 24.0966 123.627 24.2576 124.142 24.3864L125.438 24.7045C126.218 24.8939 126.799 25.1837 127.182 25.5739C127.564 25.9602 127.756 26.4583 127.756 27.0682C127.756 27.5682 127.612 28.0152 127.324 28.4091C127.04 28.803 126.642 29.1136 126.131 29.3409C125.619 29.5682 125.025 29.6818 124.347 29.6818C123.456 29.6818 122.72 29.4886 122.136 29.1023C121.553 28.7159 121.184 28.1515 121.028 27.4091L122.301 27.0909C122.422 27.5606 122.652 27.9129 122.989 28.1477C123.33 28.3826 123.775 28.5 124.324 28.5C124.949 28.5 125.445 28.3674 125.812 28.1023C126.184 27.8333 126.369 27.5114 126.369 27.1364C126.369 26.8333 126.263 26.5795 126.051 26.375C125.839 26.1667 125.513 26.0114 125.074 25.9091L123.619 25.5682C122.82 25.3788 122.233 25.0852 121.858 24.6875C121.487 24.286 121.301 23.7841 121.301 23.1818C121.301 22.6894 121.439 22.2538 121.716 21.875C121.996 21.4962 122.377 21.1989 122.858 20.983C123.343 20.767 123.892 20.6591 124.506 20.6591C125.369 20.6591 126.047 20.8485 126.54 21.2273C127.036 21.6061 127.388 22.1061 127.597 22.7273ZM133.57 20.7727V21.9091H129.047V20.7727H133.57ZM130.365 18.6818H131.706V27C131.706 27.3788 131.761 27.6629 131.871 27.8523C131.984 28.0379 132.128 28.1629 132.303 28.2273C132.481 28.2879 132.668 28.3182 132.865 28.3182C133.013 28.3182 133.134 28.3106 133.229 28.2955C133.323 28.2765 133.399 28.2614 133.456 28.25L133.729 29.4545C133.638 29.4886 133.511 29.5227 133.348 29.5568C133.185 29.5947 132.979 29.6136 132.729 29.6136C132.35 29.6136 131.979 29.5322 131.615 29.3693C131.255 29.2064 130.956 28.9583 130.717 28.625C130.482 28.2917 130.365 27.8712 130.365 27.3636V18.6818ZM139.152 29.6818C138.311 29.6818 137.586 29.4962 136.976 29.125C136.37 28.75 135.902 28.2273 135.572 27.5568C135.247 26.8826 135.084 26.0985 135.084 25.2045C135.084 24.3106 135.247 23.5227 135.572 22.8409C135.902 22.1553 136.36 21.6212 136.947 21.2386C137.538 20.8523 138.228 20.6591 139.016 20.6591C139.47 20.6591 139.919 20.7348 140.362 20.8864C140.805 21.0379 141.209 21.2841 141.572 21.625C141.936 21.9621 142.226 22.4091 142.442 22.9659C142.658 23.5227 142.766 24.2083 142.766 25.0227V25.5909H136.038V24.4318H141.402C141.402 23.9394 141.304 23.5 141.107 23.1136C140.913 22.7273 140.637 22.4223 140.277 22.1989C139.921 21.9754 139.5 21.8636 139.016 21.8636C138.482 21.8636 138.019 21.9962 137.629 22.2614C137.243 22.5227 136.946 22.8636 136.737 23.2841C136.529 23.7045 136.425 24.1553 136.425 24.6364V25.4091C136.425 26.0682 136.538 26.6269 136.766 27.0852C136.997 27.5398 137.317 27.8864 137.726 28.125C138.135 28.3598 138.61 28.4773 139.152 28.4773C139.504 28.4773 139.822 28.428 140.107 28.3295C140.394 28.2273 140.643 28.0758 140.851 27.875C141.059 27.6705 141.22 27.4167 141.334 27.1136L142.629 27.4773C142.493 27.9167 142.264 28.303 141.942 28.6364C141.62 28.9659 141.222 29.2235 140.749 29.4091C140.275 29.5909 139.743 29.6818 139.152 29.6818ZM144.805 29.5V20.7727H146.101V22.1364H146.214C146.396 21.6705 146.69 21.3087 147.095 21.0511C147.5 20.7898 147.987 20.6591 148.555 20.6591C149.131 20.6591 149.61 20.7898 149.993 21.0511C150.379 21.3087 150.68 21.6705 150.896 22.1364H150.987C151.211 21.6856 151.546 21.3277 151.993 21.0625C152.44 20.7936 152.976 20.6591 153.601 20.6591C154.381 20.6591 155.019 20.9034 155.516 21.392C156.012 21.8769 156.26 22.6326 156.26 23.6591V29.5H154.919V23.6591C154.919 23.0152 154.743 22.5549 154.391 22.2784C154.038 22.0019 153.624 21.8636 153.146 21.8636C152.533 21.8636 152.057 22.0492 151.72 22.4205C151.383 22.7879 151.214 23.2538 151.214 23.8182V29.5H149.851V23.5227C149.851 23.0265 149.69 22.6269 149.368 22.3239C149.046 22.017 148.631 21.8636 148.124 21.8636C147.775 21.8636 147.449 21.9564 147.146 22.142C146.847 22.3277 146.605 22.5852 146.419 22.9148C146.237 23.2405 146.146 23.6174 146.146 24.0455V29.5H144.805Z" fill="black"/>
</g>
<defs>
<filter id="filter0_d_7_41" x="0" y="0" width="187" height="56" filterUnits="userSpaceOnUse" color-interpolation-filters="sRGB">
<feFlood flood-opacity="0" result="BackgroundImageFix"/>
<feColorMatrix in="SourceAlpha" type="matrix" values="0 0 0 0 0 0 0 0 0 0 0 0 0 0 0 0 0 0 127 0" result="hardAlpha"/>
<feOffset dy="4"/>
<feGaussianBlur stdDeviation="2"/>
<feComposite in2="hardAlpha" operator="out"/>
<feColorMatrix type="matrix" values="0 0 0 0 0 0 0 0 0 0 0 0 0 0 0 0 0 0 0.25 0"/>
<feBlend mode="normal" in2="BackgroundImageFix" result="effect1_dropShadow_7_41"/>
<feBlend mode="normal" in="SourceGraphic" in2="effect1_dropShadow_7_41" result="shape"/>
</filter>
</defs>
</svg>
