<svg width="228" height="56" viewBox="0 0 228 56" fill="none" xmlns="http://www.w3.org/2000/svg">
<g filter="url(#filter0_d_7_38)">
<rect x="4" width="220" height="48" rx="24" fill="white" shape-rendering="crispEdges"/>
<mask id="mask0_7_38" style="mask-type:alpha" maskUnits="userSpaceOnUse" x="29" y="12" width="24" height="24">
<rect x="29" y="12" width="24" height="24" fill="#D9D9D9"/>
</mask>
<g mask="url(#mask0_7_38)">
<path d="M41 35L38 32H34C33.45 32 32.979 31.8043 32.587 31.413C32.1957 31.021 32 30.55 32 30V16C32 15.45 32.1957 14.979 32.587 14.587C32.979 14.1957 33.45 14 34 14H48C48.55 14 49.021 14.1957 49.413 14.587C49.8043 14.979 50 15.45 50 16V30C50 30.55 49.8043 31.021 49.413 31.413C49.021 31.8043 48.55 32 48 32H44L41 35ZM34 30H38.8L41 32.2L43.2 30H48V16H34V30ZM42.55 24.55L46 23L42.55 21.45L41 18L39.45 21.45L36 23L39.45 24.55L41 28L42.55 24.55Z" fill="#1C1B1F"/>
</g>
<path d="M59.4091 29.5V17.8636H63.3409C64.25 17.8636 64.9962 18.0189 65.5795 18.3295C66.1629 18.6364 66.5947 19.0587 66.875 19.5966C67.1553 20.1345 67.2955 20.7462 67.2955 21.4318C67.2955 22.1174 67.1553 22.7254 66.875 23.2557C66.5947 23.786 66.1648 24.2027 65.5852 24.5057C65.0057 24.8049 64.2652 24.9545 63.3636 24.9545H60.1818V23.6818H63.3182C63.9394 23.6818 64.4394 23.5909 64.8182 23.4091C65.2008 23.2273 65.4773 22.9697 65.6477 22.6364C65.822 22.2992 65.9091 21.8977 65.9091 21.4318C65.9091 20.9659 65.822 20.5587 65.6477 20.2102C65.4735 19.8617 65.1951 19.5928 64.8125 19.4034C64.4299 19.2102 63.9242 19.1136 63.2955 19.1136H60.8182V29.5H59.4091ZM64.8864 24.2727L67.75 29.5H66.1136L63.2955 24.2727H64.8864ZM73.027 29.6818C72.1861 29.6818 71.4607 29.4962 70.8509 29.125C70.2448 28.75 69.777 28.2273 69.4474 27.5568C69.1217 26.8826 68.9588 26.0985 68.9588 25.2045C68.9588 24.3106 69.1217 23.5227 69.4474 22.8409C69.777 22.1553 70.2353 21.6212 70.8224 21.2386C71.4134 20.8523 72.1027 20.6591 72.8906 20.6591C73.3452 20.6591 73.794 20.7348 74.2372 20.8864C74.6804 21.0379 75.0838 21.2841 75.4474 21.625C75.8111 21.9621 76.1009 22.4091 76.3168 22.9659C76.5327 23.5227 76.6406 24.2083 76.6406 25.0227V25.5909H69.9134V24.4318H75.277C75.277 23.9394 75.1785 23.5 74.9815 23.1136C74.7884 22.7273 74.5118 22.4223 74.152 22.1989C73.7959 21.9754 73.3755 21.8636 72.8906 21.8636C72.3565 21.8636 71.8944 21.9962 71.5043 22.2614C71.1179 22.5227 70.8205 22.8636 70.6122 23.2841C70.4039 23.7045 70.2997 24.1553 70.2997 24.6364V25.4091C70.2997 26.0682 70.4134 26.6269 70.6406 27.0852C70.8717 27.5398 71.1918 27.8864 71.6009 28.125C72.0099 28.3598 72.4853 28.4773 73.027 28.4773C73.3793 28.4773 73.6974 28.428 73.9815 28.3295C74.2694 28.2273 74.5175 28.0758 74.7259 27.875C74.9342 27.6705 75.0952 27.4167 75.2088 27.1136L76.5043 27.4773C76.3679 27.9167 76.1387 28.303 75.8168 28.6364C75.4948 28.9659 75.0971 29.2235 74.6236 29.4091C74.1501 29.5909 73.6179 29.6818 73.027 29.6818ZM82.2259 29.6818C81.4077 29.6818 80.7031 29.4886 80.1122 29.1023C79.5213 28.7159 79.0668 28.1837 78.7486 27.5057C78.4304 26.8277 78.2713 26.053 78.2713 25.1818C78.2713 24.2955 78.4342 23.5133 78.7599 22.8352C79.0895 22.1534 79.5478 21.6212 80.1349 21.2386C80.7259 20.8523 81.4152 20.6591 82.2031 20.6591C82.8168 20.6591 83.3698 20.7727 83.8622 21C84.3546 21.2273 84.758 21.5455 85.0724 21.9545C85.3868 22.3636 85.5819 22.8409 85.6577 23.3864H84.3168C84.2145 22.9886 83.9872 22.6364 83.6349 22.3295C83.2865 22.0189 82.8168 21.8636 82.2259 21.8636C81.7031 21.8636 81.2448 22 80.8509 22.2727C80.4607 22.5417 80.1558 22.9223 79.9361 23.4148C79.7202 23.9034 79.6122 24.4773 79.6122 25.1364C79.6122 25.8106 79.7183 26.3977 79.9304 26.8977C80.1463 27.3977 80.4493 27.786 80.8395 28.0625C81.2334 28.339 81.6955 28.4773 82.2259 28.4773C82.5743 28.4773 82.8906 28.4167 83.1747 28.2955C83.4588 28.1742 83.6993 28 83.8963 27.7727C84.0933 27.5455 84.2334 27.2727 84.3168 26.9545H85.6577C85.5819 27.4697 85.3944 27.9337 85.0952 28.3466C84.7997 28.7557 84.4077 29.0814 83.919 29.3239C83.4342 29.5625 82.8698 29.6818 82.2259 29.6818ZM91.1634 29.6818C90.3755 29.6818 89.6842 29.4943 89.0895 29.1193C88.4986 28.7443 88.0365 28.2197 87.7031 27.5455C87.3736 26.8712 87.2088 26.0833 87.2088 25.1818C87.2088 24.2727 87.3736 23.4792 87.7031 22.8011C88.0365 22.1231 88.4986 21.5966 89.0895 21.2216C89.6842 20.8466 90.3755 20.6591 91.1634 20.6591C91.9512 20.6591 92.6406 20.8466 93.2315 21.2216C93.8262 21.5966 94.2884 22.1231 94.6179 22.8011C94.9512 23.4792 95.1179 24.2727 95.1179 25.1818C95.1179 26.0833 94.9512 26.8712 94.6179 27.5455C94.2884 28.2197 93.8262 28.7443 93.2315 29.1193C92.6406 29.4943 91.9512 29.6818 91.1634 29.6818ZM91.1634 28.4773C91.7618 28.4773 92.2543 28.3239 92.6406 28.017C93.027 27.7102 93.313 27.3068 93.4986 26.8068C93.6842 26.3068 93.777 25.7652 93.777 25.1818C93.777 24.5985 93.6842 24.0549 93.4986 23.5511C93.313 23.0473 93.027 22.6402 92.6406 22.3295C92.2543 22.0189 91.7618 21.8636 91.1634 21.8636C90.5649 21.8636 90.0724 22.0189 89.6861 22.3295C89.2997 22.6402 89.0137 23.0473 88.8281 23.5511C88.6425 24.0549 88.5497 24.5985 88.5497 25.1818C88.5497 25.7652 88.6425 26.3068 88.8281 26.8068C89.0137 27.3068 89.2997 27.7102 89.6861 28.017C90.0724 28.3239 90.5649 28.4773 91.1634 28.4773ZM97.1648 29.5V20.7727H98.4602V22.1364H98.5739C98.7557 21.6705 99.0492 21.3087 99.4545 21.0511C99.8598 20.7898 100.347 20.6591 100.915 20.6591C101.491 20.6591 101.97 20.7898 102.352 21.0511C102.739 21.3087 103.04 21.6705 103.256 22.1364H103.347C103.57 21.6856 103.905 21.3277 104.352 21.0625C104.799 20.7936 105.335 20.6591 105.96 20.6591C106.741 20.6591 107.379 20.9034 107.875 21.392C108.371 21.8769 108.619 22.6326 108.619 23.6591V29.5H107.278V23.6591C107.278 23.0152 107.102 22.5549 106.75 22.2784C106.398 22.0019 105.983 21.8636 105.506 21.8636C104.892 21.8636 104.417 22.0492 104.08 22.4205C103.742 22.7879 103.574 23.2538 103.574 23.8182V29.5H102.21V23.5227C102.21 23.0265 102.049 22.6269 101.727 22.3239C101.405 22.017 100.991 21.8636 100.483 21.8636C100.134 21.8636 99.8087 21.9564 99.5057 22.142C99.2064 22.3277 98.964 22.5852 98.7784 22.9148C98.5966 23.2405 98.5057 23.6174 98.5057 24.0455V29.5H97.1648ZM111.071 29.5V20.7727H112.366V22.1364H112.48C112.662 21.6705 112.955 21.3087 113.361 21.0511C113.766 20.7898 114.253 20.6591 114.821 20.6591C115.397 20.6591 115.876 20.7898 116.259 21.0511C116.645 21.3087 116.946 21.6705 117.162 22.1364H117.253C117.476 21.6856 117.812 21.3277 118.259 21.0625C118.705 20.7936 119.241 20.6591 119.866 20.6591C120.647 20.6591 121.285 20.9034 121.781 21.392C122.277 21.8769 122.526 22.6326 122.526 23.6591V29.5H121.185V23.6591C121.185 23.0152 121.009 22.5549 120.656 22.2784C120.304 22.0019 119.889 21.8636 119.412 21.8636C118.798 21.8636 118.323 22.0492 117.986 22.4205C117.649 22.7879 117.48 23.2538 117.48 23.8182V29.5H116.116V23.5227C116.116 23.0265 115.955 22.6269 115.634 22.3239C115.312 22.017 114.897 21.8636 114.389 21.8636C114.041 21.8636 113.715 21.9564 113.412 22.142C113.113 22.3277 112.87 22.5852 112.685 22.9148C112.503 23.2405 112.412 23.6174 112.412 24.0455V29.5H111.071ZM128.636 29.6818C127.795 29.6818 127.07 29.4962 126.46 29.125C125.854 28.75 125.386 28.2273 125.057 27.5568C124.731 26.8826 124.568 26.0985 124.568 25.2045C124.568 24.3106 124.731 23.5227 125.057 22.8409C125.386 22.1553 125.845 21.6212 126.432 21.2386C127.023 20.8523 127.712 20.6591 128.5 20.6591C128.955 20.6591 129.403 20.7348 129.847 20.8864C130.29 21.0379 130.693 21.2841 131.057 21.625C131.42 21.9621 131.71 22.4091 131.926 22.9659C132.142 23.5227 132.25 24.2083 132.25 25.0227V25.5909H125.523V24.4318H130.886C130.886 23.9394 130.788 23.5 130.591 23.1136C130.398 22.7273 130.121 22.4223 129.761 22.1989C129.405 21.9754 128.985 21.8636 128.5 21.8636C127.966 21.8636 127.504 21.9962 127.114 22.2614C126.727 22.5227 126.43 22.8636 126.222 23.2841C126.013 23.7045 125.909 24.1553 125.909 24.6364V25.4091C125.909 26.0682 126.023 26.6269 126.25 27.0852C126.481 27.5398 126.801 27.8864 127.21 28.125C127.619 28.3598 128.095 28.4773 128.636 28.4773C128.989 28.4773 129.307 28.428 129.591 28.3295C129.879 28.2273 130.127 28.0758 130.335 27.875C130.544 27.6705 130.705 27.4167 130.818 27.1136L132.114 27.4773C131.977 27.9167 131.748 28.303 131.426 28.6364C131.104 28.9659 130.706 29.2235 130.233 29.4091C129.759 29.5909 129.227 29.6818 128.636 29.6818ZM135.631 24.25V29.5H134.29V20.7727H135.585V22.1364H135.699C135.903 21.6932 136.214 21.3371 136.631 21.0682C137.047 20.7955 137.585 20.6591 138.244 20.6591C138.835 20.6591 139.352 20.7803 139.795 21.0227C140.239 21.2614 140.583 21.625 140.83 22.1136C141.076 22.5985 141.199 23.2121 141.199 23.9545V29.5H139.858V24.0455C139.858 23.3598 139.68 22.8258 139.324 22.4432C138.968 22.0568 138.479 21.8636 137.858 21.8636C137.43 21.8636 137.047 21.9564 136.71 22.142C136.377 22.3277 136.114 22.5985 135.92 22.9545C135.727 23.3106 135.631 23.7424 135.631 24.25ZM146.945 29.6818C146.217 29.6818 145.575 29.4981 145.018 29.1307C144.462 28.7595 144.026 28.2367 143.712 27.5625C143.397 26.8845 143.24 26.0833 143.24 25.1591C143.24 24.2424 143.397 23.447 143.712 22.7727C144.026 22.0985 144.464 21.5777 145.024 21.2102C145.585 20.8428 146.232 20.6591 146.967 20.6591C147.536 20.6591 147.984 20.7538 148.314 20.9432C148.647 21.1288 148.901 21.3409 149.075 21.5795C149.253 21.8144 149.392 22.0076 149.49 22.1591H149.604V17.8636H150.945V29.5H149.649V28.1591H149.49C149.392 28.3182 149.251 28.5189 149.07 28.7614C148.888 29 148.628 29.214 148.291 29.4034C147.954 29.589 147.505 29.6818 146.945 29.6818ZM147.126 28.4773C147.664 28.4773 148.119 28.3371 148.49 28.0568C148.861 27.7727 149.143 27.3807 149.337 26.8807C149.53 26.3769 149.626 25.7955 149.626 25.1364C149.626 24.4848 149.532 23.9148 149.342 23.4261C149.153 22.9337 148.873 22.5511 148.501 22.2784C148.13 22.0019 147.672 21.8636 147.126 21.8636C146.558 21.8636 146.085 22.0095 145.706 22.3011C145.331 22.589 145.049 22.9811 144.859 23.4773C144.674 23.9697 144.581 24.5227 144.581 25.1364C144.581 25.7576 144.676 26.322 144.865 26.8295C145.058 27.3333 145.342 27.7348 145.717 28.0341C146.096 28.3295 146.566 28.4773 147.126 28.4773ZM156.155 29.7045C155.602 29.7045 155.1 29.6004 154.649 29.392C154.198 29.1799 153.84 28.875 153.575 28.4773C153.31 28.0758 153.178 27.5909 153.178 27.0227C153.178 26.5227 153.276 26.1174 153.473 25.8068C153.67 25.4924 153.933 25.2462 154.263 25.0682C154.592 24.8902 154.956 24.7576 155.354 24.6705C155.755 24.5795 156.159 24.5076 156.564 24.4545C157.094 24.3864 157.524 24.3352 157.854 24.3011C158.187 24.2633 158.429 24.2008 158.581 24.1136C158.736 24.0265 158.814 23.875 158.814 23.6591V23.6136C158.814 23.053 158.661 22.6174 158.354 22.3068C158.051 21.9962 157.59 21.8409 156.973 21.8409C156.333 21.8409 155.831 21.9811 155.467 22.2614C155.104 22.5417 154.848 22.8409 154.7 23.1591L153.428 22.7045C153.655 22.1742 153.958 21.7614 154.337 21.4659C154.719 21.1667 155.136 20.9583 155.587 20.8409C156.041 20.7197 156.488 20.6591 156.928 20.6591C157.208 20.6591 157.53 20.6932 157.893 20.7614C158.261 20.8258 158.615 20.9602 158.956 21.1648C159.301 21.3693 159.587 21.678 159.814 22.0909C160.041 22.5038 160.155 23.0568 160.155 23.75V29.5H158.814V28.3182H158.746C158.655 28.5076 158.503 28.7102 158.291 28.9261C158.079 29.142 157.797 29.3258 157.445 29.4773C157.092 29.6288 156.662 29.7045 156.155 29.7045ZM156.359 28.5C156.89 28.5 157.337 28.3958 157.7 28.1875C158.068 27.9792 158.344 27.7102 158.53 27.3807C158.719 27.0511 158.814 26.7045 158.814 26.3409V25.1136C158.757 25.1818 158.632 25.2443 158.439 25.3011C158.25 25.3542 158.03 25.4015 157.78 25.4432C157.534 25.4811 157.293 25.5152 157.058 25.5455C156.827 25.572 156.64 25.5947 156.496 25.6136C156.147 25.6591 155.821 25.733 155.518 25.8352C155.219 25.9337 154.977 26.0833 154.791 26.2841C154.609 26.4811 154.518 26.75 154.518 27.0909C154.518 27.5568 154.691 27.9091 155.036 28.1477C155.384 28.3826 155.825 28.5 156.359 28.5ZM166.398 20.7727V21.9091H161.875V20.7727H166.398ZM163.193 18.6818H164.534V27C164.534 27.3788 164.589 27.6629 164.699 27.8523C164.813 28.0379 164.956 28.1629 165.131 28.2273C165.309 28.2879 165.496 28.3182 165.693 28.3182C165.841 28.3182 165.962 28.3106 166.057 28.2955C166.152 28.2765 166.227 28.2614 166.284 28.25L166.557 29.4545C166.466 29.4886 166.339 29.5227 166.176 29.5568C166.013 29.5947 165.807 29.6136 165.557 29.6136C165.178 29.6136 164.807 29.5322 164.443 29.3693C164.083 29.2064 163.784 28.9583 163.545 28.625C163.311 28.2917 163.193 27.8712 163.193 27.3636V18.6818ZM168.415 29.5V20.7727H169.756V29.5H168.415ZM169.097 19.3182C168.835 19.3182 168.61 19.2292 168.42 19.0511C168.235 18.8731 168.142 18.6591 168.142 18.4091C168.142 18.1591 168.235 17.9451 168.42 17.767C168.61 17.589 168.835 17.5 169.097 17.5C169.358 17.5 169.581 17.589 169.767 17.767C169.956 17.9451 170.051 18.1591 170.051 18.4091C170.051 18.6591 169.956 18.8731 169.767 19.0511C169.581 19.2292 169.358 19.3182 169.097 19.3182ZM175.757 29.6818C174.969 29.6818 174.278 29.4943 173.683 29.1193C173.092 28.7443 172.63 28.2197 172.297 27.5455C171.967 26.8712 171.803 26.0833 171.803 25.1818C171.803 24.2727 171.967 23.4792 172.297 22.8011C172.63 22.1231 173.092 21.5966 173.683 21.2216C174.278 20.8466 174.969 20.6591 175.757 20.6591C176.545 20.6591 177.234 20.8466 177.825 21.2216C178.42 21.5966 178.882 22.1231 179.212 22.8011C179.545 23.4792 179.712 24.2727 179.712 25.1818C179.712 26.0833 179.545 26.8712 179.212 27.5455C178.882 28.2197 178.42 28.7443 177.825 29.1193C177.234 29.4943 176.545 29.6818 175.757 29.6818ZM175.757 28.4773C176.356 28.4773 176.848 28.3239 177.234 28.017C177.621 27.7102 177.907 27.3068 178.092 26.8068C178.278 26.3068 178.371 25.7652 178.371 25.1818C178.371 24.5985 178.278 24.0549 178.092 23.5511C177.907 23.0473 177.621 22.6402 177.234 22.3295C176.848 22.0189 176.356 21.8636 175.757 21.8636C175.159 21.8636 174.666 22.0189 174.28 22.3295C173.893 22.6402 173.607 23.0473 173.422 23.5511C173.236 24.0549 173.143 24.5985 173.143 25.1818C173.143 25.7652 173.236 26.3068 173.422 26.8068C173.607 27.3068 173.893 27.7102 174.28 28.017C174.666 28.3239 175.159 28.4773 175.757 28.4773ZM183.099 24.25V29.5H181.759V20.7727H183.054V22.1364H183.168C183.372 21.6932 183.683 21.3371 184.099 21.0682C184.516 20.7955 185.054 20.6591 185.713 20.6591C186.304 20.6591 186.821 20.7803 187.264 21.0227C187.707 21.2614 188.052 21.625 188.298 22.1136C188.545 22.5985 188.668 23.2121 188.668 23.9545V29.5H187.327V24.0455C187.327 23.3598 187.149 22.8258 186.793 22.4432C186.437 22.0568 185.948 21.8636 185.327 21.8636C184.899 21.8636 184.516 21.9564 184.179 22.142C183.846 22.3277 183.582 22.5985 183.389 22.9545C183.196 23.3106 183.099 23.7424 183.099 24.25ZM197.3 22.7273L196.095 23.0682C196.019 22.8674 195.908 22.6723 195.76 22.483C195.616 22.2898 195.419 22.1307 195.169 22.0057C194.919 21.8807 194.599 21.8182 194.209 21.8182C193.675 21.8182 193.23 21.9413 192.874 22.1875C192.521 22.4299 192.345 22.7386 192.345 23.1136C192.345 23.447 192.466 23.7102 192.709 23.9034C192.951 24.0966 193.33 24.2576 193.845 24.3864L195.141 24.7045C195.921 24.8939 196.502 25.1837 196.885 25.5739C197.268 25.9602 197.459 26.4583 197.459 27.0682C197.459 27.5682 197.315 28.0152 197.027 28.4091C196.743 28.803 196.345 29.1136 195.834 29.3409C195.322 29.5682 194.728 29.6818 194.05 29.6818C193.16 29.6818 192.423 29.4886 191.839 29.1023C191.256 28.7159 190.887 28.1515 190.732 27.4091L192.004 27.0909C192.125 27.5606 192.355 27.9129 192.692 28.1477C193.033 28.3826 193.478 28.5 194.027 28.5C194.652 28.5 195.148 28.3674 195.516 28.1023C195.887 27.8333 196.072 27.5114 196.072 27.1364C196.072 26.8333 195.966 26.5795 195.754 26.375C195.542 26.1667 195.216 26.0114 194.777 25.9091L193.322 25.5682C192.523 25.3788 191.936 25.0852 191.561 24.6875C191.19 24.286 191.004 23.7841 191.004 23.1818C191.004 22.6894 191.143 22.2538 191.419 21.875C191.699 21.4962 192.08 21.1989 192.561 20.983C193.046 20.767 193.595 20.6591 194.209 20.6591C195.072 20.6591 195.75 20.8485 196.243 21.2273C196.739 21.6061 197.091 22.1061 197.3 22.7273Z" fill="black"/>
</g>
<defs>
<filter id="filter0_d_7_38" x="0" y="0" width="228" height="56" filterUnits="userSpaceOnUse" color-interpolation-filters="sRGB">
<feFlood flood-opacity="0" result="BackgroundImageFix"/>
<feColorMatrix in="SourceAlpha" type="matrix" values="0 0 0 0 0 0 0 0 0 0 0 0 0 0 0 0 0 0 127 0" result="hardAlpha"/>
<feOffset dy="4"/>
<feGaussianBlur stdDeviation="2"/>
<feComposite in2="hardAlpha" operator="out"/>
<feColorMatrix type="matrix" values="0 0 0 0 0 0 0 0 0 0 0 0 0 0 0 0 0 0 0.25 0"/>
<feBlend mode="normal" in2="BackgroundImageFix" result="effect1_dropShadow_7_38"/>
<feBlend mode="normal" in="SourceGraphic" in2="effect1_dropShadow_7_38" result="shape"/>
</filter>
</defs>
</svg>
