<svg width="190" height="56" viewBox="0 0 190 56" fill="none" xmlns="http://www.w3.org/2000/svg">
<g filter="url(#filter0_d_7_44)">
<rect x="4" width="182" height="48" rx="24" fill="white" shape-rendering="crispEdges"/>
<mask id="mask0_7_44" style="mask-type:alpha" maskUnits="userSpaceOnUse" x="29" y="12" width="24" height="24">
<rect x="29" y="12" width="24" height="24" fill="#D9D9D9"/>
</mask>
<g mask="url(#mask0_7_44)">
<path d="M33 27C32.1667 27 31.4583 26.7083 30.875 26.125C30.2917 25.5417 30 24.8333 30 24C30 23.1667 30.2917 22.4583 30.875 21.875C31.4583 21.2917 32.1667 21 33 21V19C33 18.45 33.196 17.9793 33.588 17.588C33.9793 17.196 34.45 17 35 17H38C38 16.1667 38.2917 15.4583 38.875 14.875C39.4583 14.2917 40.1667 14 41 14C41.8333 14 42.5417 14.2917 43.125 14.875C43.7083 15.4583 44 16.1667 44 17H47C47.55 17 48.021 17.196 48.413 17.588C48.8043 17.9793 49 18.45 49 19V21C49.8333 21 50.5417 21.2917 51.125 21.875C51.7083 22.4583 52 23.1667 52 24C52 24.8333 51.7083 25.5417 51.125 26.125C50.5417 26.7083 49.8333 27 49 27V31C49 31.55 48.8043 32.021 48.413 32.413C48.021 32.8043 47.55 33 47 33H35C34.45 33 33.9793 32.8043 33.588 32.413C33.196 32.021 33 31.55 33 31V27ZM38 25C38.4167 25 38.7707 24.854 39.062 24.562C39.354 24.2707 39.5 23.9167 39.5 23.5C39.5 23.0833 39.354 22.7293 39.062 22.438C38.7707 22.146 38.4167 22 38 22C37.5833 22 37.2293 22.146 36.938 22.438C36.646 22.7293 36.5 23.0833 36.5 23.5C36.5 23.9167 36.646 24.2707 36.938 24.562C37.2293 24.854 37.5833 25 38 25ZM44 25C44.4167 25 44.7707 24.854 45.062 24.562C45.354 24.2707 45.5 23.9167 45.5 23.5C45.5 23.0833 45.354 22.7293 45.062 22.438C44.7707 22.146 44.4167 22 44 22C43.5833 22 43.2293 22.146 42.938 22.438C42.646 22.7293 42.5 23.0833 42.5 23.5C42.5 23.9167 42.646 24.2707 42.938 24.562C43.2293 24.854 43.5833 25 44 25ZM37 29H45V27H37V29ZM35 31H47V19H35V31Z" fill="#1C1B1F"/>
</g>
<path d="M59.8864 17.8636L63.3409 27.6591H63.4773L66.9318 17.8636H68.4091L64.1364 29.5H62.6818L58.4091 17.8636H59.8864ZM70.0398 29.5V20.7727H71.3807V29.5H70.0398ZM70.7216 19.3182C70.4602 19.3182 70.2348 19.2292 70.0455 19.0511C69.8598 18.8731 69.767 18.6591 69.767 18.4091C69.767 18.1591 69.8598 17.9451 70.0455 17.767C70.2348 17.589 70.4602 17.5 70.7216 17.5C70.983 17.5 71.2064 17.589 71.392 17.767C71.5814 17.9451 71.6761 18.1591 71.6761 18.4091C71.6761 18.6591 71.5814 18.8731 71.392 19.0511C71.2064 19.2292 70.983 19.3182 70.7216 19.3182ZM73.8366 29.5V20.7727H75.1321V22.0909H75.223C75.3821 21.6591 75.67 21.3087 76.0866 21.0398C76.5033 20.7708 76.973 20.6364 77.4957 20.6364C77.5942 20.6364 77.7173 20.6383 77.8651 20.642C78.0128 20.6458 78.1245 20.6515 78.2003 20.6591V22.0227C78.1548 22.0114 78.0507 21.9943 77.8878 21.9716C77.7287 21.9451 77.5601 21.9318 77.3821 21.9318C76.9579 21.9318 76.5791 22.0208 76.2457 22.1989C75.9162 22.3731 75.6548 22.6155 75.4616 22.9261C75.2723 23.233 75.1776 23.5833 75.1776 23.9773V29.5H73.8366ZM84.1321 20.7727V21.9091H79.6094V20.7727H84.1321ZM80.9276 18.6818H82.2685V27C82.2685 27.3788 82.3234 27.6629 82.4332 27.8523C82.5469 28.0379 82.6908 28.1629 82.8651 28.2273C83.0431 28.2879 83.2306 28.3182 83.4276 28.3182C83.5753 28.3182 83.6965 28.3106 83.7912 28.2955C83.8859 28.2765 83.9616 28.2614 84.0185 28.25L84.2912 29.4545C84.2003 29.4886 84.0734 29.5227 83.9105 29.5568C83.7476 29.5947 83.5412 29.6136 83.2912 29.6136C82.9124 29.6136 82.5412 29.5322 82.1776 29.3693C81.8177 29.2064 81.5185 28.9583 81.2798 28.625C81.045 28.2917 80.9276 27.8712 80.9276 27.3636V18.6818ZM91.6491 25.9318V20.7727H92.9901V29.5H91.6491V28.0227H91.5582C91.3537 28.4659 91.0355 28.8428 90.6037 29.1534C90.1719 29.4602 89.6264 29.6136 88.9673 29.6136C88.4219 29.6136 87.937 29.4943 87.5128 29.2557C87.0885 29.0133 86.7552 28.6496 86.5128 28.1648C86.2704 27.6761 86.1491 27.0606 86.1491 26.3182V20.7727H87.4901V26.2273C87.4901 26.8636 87.6681 27.3712 88.0241 27.75C88.384 28.1288 88.8423 28.3182 89.3991 28.3182C89.7325 28.3182 90.0715 28.233 90.4162 28.0625C90.7647 27.892 91.0563 27.6307 91.2912 27.2784C91.5298 26.9261 91.6491 26.4773 91.6491 25.9318ZM98.0142 29.7045C97.4612 29.7045 96.9593 29.6004 96.5085 29.392C96.0578 29.1799 95.6998 28.875 95.4347 28.4773C95.1695 28.0758 95.0369 27.5909 95.0369 27.0227C95.0369 26.5227 95.1354 26.1174 95.3324 25.8068C95.5294 25.4924 95.7926 25.2462 96.1222 25.0682C96.4517 24.8902 96.8153 24.7576 97.2131 24.6705C97.6146 24.5795 98.018 24.5076 98.4233 24.4545C98.9536 24.3864 99.3835 24.3352 99.7131 24.3011C100.046 24.2633 100.289 24.2008 100.44 24.1136C100.596 24.0265 100.673 23.875 100.673 23.6591V23.6136C100.673 23.053 100.52 22.6174 100.213 22.3068C99.91 21.9962 99.4498 21.8409 98.8324 21.8409C98.1922 21.8409 97.6903 21.9811 97.3267 22.2614C96.9631 22.5417 96.7074 22.8409 96.5597 23.1591L95.2869 22.7045C95.5142 22.1742 95.8172 21.7614 96.196 21.4659C96.5786 21.1667 96.9953 20.9583 97.446 20.8409C97.9006 20.7197 98.3475 20.6591 98.7869 20.6591C99.0672 20.6591 99.3892 20.6932 99.7528 20.7614C100.12 20.8258 100.474 20.9602 100.815 21.1648C101.16 21.3693 101.446 21.678 101.673 22.0909C101.901 22.5038 102.014 23.0568 102.014 23.75V29.5H100.673V28.3182H100.605C100.514 28.5076 100.363 28.7102 100.151 28.9261C99.9384 29.142 99.6563 29.3258 99.304 29.4773C98.9517 29.6288 98.5218 29.7045 98.0142 29.7045ZM98.2188 28.5C98.7491 28.5 99.196 28.3958 99.5597 28.1875C99.9271 27.9792 100.204 27.7102 100.389 27.3807C100.579 27.0511 100.673 26.7045 100.673 26.3409V25.1136C100.616 25.1818 100.491 25.2443 100.298 25.3011C100.109 25.3542 99.8892 25.4015 99.6392 25.4432C99.393 25.4811 99.1525 25.5152 98.9176 25.5455C98.6866 25.572 98.4991 25.5947 98.3551 25.6136C98.0066 25.6591 97.6809 25.733 97.3778 25.8352C97.0786 25.9337 96.8362 26.0833 96.6506 26.2841C96.4688 26.4811 96.3778 26.75 96.3778 27.0909C96.3778 27.5568 96.5502 27.9091 96.8949 28.1477C97.2434 28.3826 97.6847 28.5 98.2188 28.5ZM105.803 17.8636V29.5H104.462V17.8636H105.803ZM122.304 21.5H120.895C120.812 21.0947 120.666 20.7386 120.457 20.4318C120.253 20.125 120.003 19.8674 119.707 19.6591C119.416 19.447 119.092 19.2879 118.736 19.1818C118.38 19.0758 118.009 19.0227 117.622 19.0227C116.918 19.0227 116.279 19.2008 115.707 19.5568C115.139 19.9129 114.687 20.4375 114.349 21.1307C114.016 21.8239 113.849 22.6742 113.849 23.6818C113.849 24.6894 114.016 25.5398 114.349 26.233C114.687 26.9261 115.139 27.4508 115.707 27.8068C116.279 28.1629 116.918 28.3409 117.622 28.3409C118.009 28.3409 118.38 28.2879 118.736 28.1818C119.092 28.0758 119.416 27.9186 119.707 27.7102C120.003 27.4981 120.253 27.2386 120.457 26.9318C120.666 26.6212 120.812 26.2652 120.895 25.8636H122.304C122.198 26.4583 122.005 26.9905 121.724 27.4602C121.444 27.9299 121.096 28.3295 120.679 28.6591C120.262 28.9848 119.795 29.233 119.276 29.4034C118.76 29.5739 118.209 29.6591 117.622 29.6591C116.63 29.6591 115.747 29.4167 114.974 28.9318C114.202 28.447 113.594 27.7576 113.151 26.8636C112.707 25.9697 112.486 24.9091 112.486 23.6818C112.486 22.4545 112.707 21.3939 113.151 20.5C113.594 19.6061 114.202 18.9167 114.974 18.4318C115.747 17.947 116.63 17.7045 117.622 17.7045C118.209 17.7045 118.76 17.7898 119.276 17.9602C119.795 18.1307 120.262 18.3807 120.679 18.7102C121.096 19.036 121.444 19.4337 121.724 19.9034C122.005 20.3693 122.198 20.9015 122.304 21.5ZM127.945 29.6818C127.157 29.6818 126.465 29.4943 125.871 29.1193C125.28 28.7443 124.818 28.2197 124.484 27.5455C124.155 26.8712 123.99 26.0833 123.99 25.1818C123.99 24.2727 124.155 23.4792 124.484 22.8011C124.818 22.1231 125.28 21.5966 125.871 21.2216C126.465 20.8466 127.157 20.6591 127.945 20.6591C128.732 20.6591 129.422 20.8466 130.013 21.2216C130.607 21.5966 131.07 22.1231 131.399 22.8011C131.732 23.4792 131.899 24.2727 131.899 25.1818C131.899 26.0833 131.732 26.8712 131.399 27.5455C131.07 28.2197 130.607 28.7443 130.013 29.1193C129.422 29.4943 128.732 29.6818 127.945 29.6818ZM127.945 28.4773C128.543 28.4773 129.036 28.3239 129.422 28.017C129.808 27.7102 130.094 27.3068 130.28 26.8068C130.465 26.3068 130.558 25.7652 130.558 25.1818C130.558 24.5985 130.465 24.0549 130.28 23.5511C130.094 23.0473 129.808 22.6402 129.422 22.3295C129.036 22.0189 128.543 21.8636 127.945 21.8636C127.346 21.8636 126.854 22.0189 126.467 22.3295C126.081 22.6402 125.795 23.0473 125.609 23.5511C125.424 24.0549 125.331 24.5985 125.331 25.1818C125.331 25.7652 125.424 26.3068 125.609 26.8068C125.795 27.3068 126.081 27.7102 126.467 28.017C126.854 28.3239 127.346 28.4773 127.945 28.4773ZM136.514 29.7045C135.961 29.7045 135.459 29.6004 135.009 29.392C134.558 29.1799 134.2 28.875 133.935 28.4773C133.67 28.0758 133.537 27.5909 133.537 27.0227C133.537 26.5227 133.635 26.1174 133.832 25.8068C134.029 25.4924 134.293 25.2462 134.622 25.0682C134.952 24.8902 135.315 24.7576 135.713 24.6705C136.115 24.5795 136.518 24.5076 136.923 24.4545C137.454 24.3864 137.884 24.3352 138.213 24.3011C138.546 24.2633 138.789 24.2008 138.94 24.1136C139.096 24.0265 139.173 23.875 139.173 23.6591V23.6136C139.173 23.053 139.02 22.6174 138.713 22.3068C138.41 21.9962 137.95 21.8409 137.332 21.8409C136.692 21.8409 136.19 21.9811 135.827 22.2614C135.463 22.5417 135.207 22.8409 135.06 23.1591L133.787 22.7045C134.014 22.1742 134.317 21.7614 134.696 21.4659C135.079 21.1667 135.495 20.9583 135.946 20.8409C136.401 20.7197 136.848 20.6591 137.287 20.6591C137.567 20.6591 137.889 20.6932 138.253 20.7614C138.62 20.8258 138.974 20.9602 139.315 21.1648C139.66 21.3693 139.946 21.678 140.173 22.0909C140.401 22.5038 140.514 23.0568 140.514 23.75V29.5H139.173V28.3182H139.105C139.014 28.5076 138.863 28.7102 138.651 28.9261C138.438 29.142 138.156 29.3258 137.804 29.4773C137.452 29.6288 137.022 29.7045 136.514 29.7045ZM136.719 28.5C137.249 28.5 137.696 28.3958 138.06 28.1875C138.427 27.9792 138.704 27.7102 138.889 27.3807C139.079 27.0511 139.173 26.7045 139.173 26.3409V25.1136C139.116 25.1818 138.991 25.2443 138.798 25.3011C138.609 25.3542 138.389 25.4015 138.139 25.4432C137.893 25.4811 137.652 25.5152 137.418 25.5455C137.187 25.572 136.999 25.5947 136.855 25.6136C136.507 25.6591 136.181 25.733 135.878 25.8352C135.579 25.9337 135.336 26.0833 135.151 26.2841C134.969 26.4811 134.878 26.75 134.878 27.0909C134.878 27.5568 135.05 27.9091 135.395 28.1477C135.743 28.3826 136.185 28.5 136.719 28.5ZM146.507 29.6818C145.689 29.6818 144.984 29.4886 144.393 29.1023C143.803 28.7159 143.348 28.1837 143.03 27.5057C142.712 26.8277 142.553 26.053 142.553 25.1818C142.553 24.2955 142.715 23.5133 143.041 22.8352C143.371 22.1534 143.829 21.6212 144.416 21.2386C145.007 20.8523 145.696 20.6591 146.484 20.6591C147.098 20.6591 147.651 20.7727 148.143 21C148.636 21.2273 149.039 21.5455 149.354 21.9545C149.668 22.3636 149.863 22.8409 149.939 23.3864H148.598C148.496 22.9886 148.268 22.6364 147.916 22.3295C147.568 22.0189 147.098 21.8636 146.507 21.8636C145.984 21.8636 145.526 22 145.132 22.2727C144.742 22.5417 144.437 22.9223 144.217 23.4148C144.001 23.9034 143.893 24.4773 143.893 25.1364C143.893 25.8106 144 26.3977 144.212 26.8977C144.428 27.3977 144.731 27.786 145.121 28.0625C145.515 28.339 145.977 28.4773 146.507 28.4773C146.856 28.4773 147.172 28.4167 147.456 28.2955C147.74 28.1742 147.981 28 148.178 27.7727C148.375 27.5455 148.515 27.2727 148.598 26.9545H149.939C149.863 27.4697 149.676 27.9337 149.376 28.3466C149.081 28.7557 148.689 29.0814 148.2 29.3239C147.715 29.5625 147.151 29.6818 146.507 29.6818ZM153.24 24.25V29.5H151.899V17.8636H153.24V22.1364H153.354C153.558 21.6856 153.865 21.3277 154.274 21.0625C154.687 20.7936 155.236 20.6591 155.922 20.6591C156.517 20.6591 157.037 20.7784 157.484 21.017C157.931 21.2519 158.278 21.6136 158.524 22.1023C158.774 22.5871 158.899 23.2045 158.899 23.9545V29.5H157.558V24.0455C157.558 23.3523 157.378 22.8163 157.018 22.4375C156.662 22.0549 156.168 21.8636 155.536 21.8636C155.096 21.8636 154.702 21.9564 154.354 22.142C154.009 22.3277 153.736 22.5985 153.536 22.9545C153.339 23.3106 153.24 23.7424 153.24 24.25Z" fill="black"/>
</g>
<defs>
<filter id="filter0_d_7_44" x="0" y="0" width="190" height="56" filterUnits="userSpaceOnUse" color-interpolation-filters="sRGB">
<feFlood flood-opacity="0" result="BackgroundImageFix"/>
<feColorMatrix in="SourceAlpha" type="matrix" values="0 0 0 0 0 0 0 0 0 0 0 0 0 0 0 0 0 0 127 0" result="hardAlpha"/>
<feOffset dy="4"/>
<feGaussianBlur stdDeviation="2"/>
<feComposite in2="hardAlpha" operator="out"/>
<feColorMatrix type="matrix" values="0 0 0 0 0 0 0 0 0 0 0 0 0 0 0 0 0 0 0.25 0"/>
<feBlend mode="normal" in2="BackgroundImageFix" result="effect1_dropShadow_7_44"/>
<feBlend mode="normal" in="SourceGraphic" in2="effect1_dropShadow_7_44" result="shape"/>
</filter>
</defs>
</svg>
