<svg width="222" height="56" viewBox="0 0 222 56" fill="none" xmlns="http://www.w3.org/2000/svg">
<g filter="url(#filter0_d_7_47)">
<rect x="4" width="214" height="48" rx="24" fill="white" shape-rendering="crispEdges"/>
<mask id="mask0_7_47" style="mask-type:alpha" maskUnits="userSpaceOnUse" x="29" y="12" width="24" height="24">
<rect x="29" y="12" width="24" height="24" fill="#D9D9D9"/>
</mask>
<g mask="url(#mask0_7_47)">
<path d="M34 32V26H37V32H34ZM40 32V21H43V32H40ZM46 32V16H49V32H46Z" fill="#1C1B1F"/>
</g>
<path d="M61.5227 29.5L58.3409 17.8636H59.7727L62.2045 27.3409H62.3182L64.7955 17.8636H66.3864L68.8636 27.3409H68.9773L71.4091 17.8636H72.8409L69.6591 29.5H68.2045L65.6364 20.2273H65.5455L62.9773 29.5H61.5227ZM77.2614 29.6818C76.4205 29.6818 75.6951 29.4962 75.0852 29.125C74.4792 28.75 74.0114 28.2273 73.6818 27.5568C73.3561 26.8826 73.1932 26.0985 73.1932 25.2045C73.1932 24.3106 73.3561 23.5227 73.6818 22.8409C74.0114 22.1553 74.4697 21.6212 75.0568 21.2386C75.6477 20.8523 76.3371 20.6591 77.125 20.6591C77.5795 20.6591 78.0284 20.7348 78.4716 20.8864C78.9148 21.0379 79.3182 21.2841 79.6818 21.625C80.0455 21.9621 80.3352 22.4091 80.5511 22.9659C80.767 23.5227 80.875 24.2083 80.875 25.0227V25.5909H74.1477V24.4318H79.5114C79.5114 23.9394 79.4129 23.5 79.2159 23.1136C79.0227 22.7273 78.7462 22.4223 78.3864 22.1989C78.0303 21.9754 77.6098 21.8636 77.125 21.8636C76.5909 21.8636 76.1288 21.9962 75.7386 22.2614C75.3523 22.5227 75.0549 22.8636 74.8466 23.2841C74.6383 23.7045 74.5341 24.1553 74.5341 24.6364V25.4091C74.5341 26.0682 74.6477 26.6269 74.875 27.0852C75.1061 27.5398 75.4261 27.8864 75.8352 28.125C76.2443 28.3598 76.7197 28.4773 77.2614 28.4773C77.6136 28.4773 77.9318 28.428 78.2159 28.3295C78.5038 28.2273 78.7519 28.0758 78.9602 27.875C79.1686 27.6705 79.3295 27.4167 79.4432 27.1136L80.7386 27.4773C80.6023 27.9167 80.3731 28.303 80.0511 28.6364C79.7292 28.9659 79.3314 29.2235 78.858 29.4091C78.3845 29.5909 77.8523 29.6818 77.2614 29.6818ZM84.2557 17.8636V29.5H82.9148V17.8636H84.2557ZM88.0526 17.8636V29.5H86.7116V17.8636H88.0526ZM90.6903 29.5V17.8636H92.0312V22.1591H92.1449C92.2434 22.0076 92.3797 21.8144 92.554 21.5795C92.732 21.3409 92.9858 21.1288 93.3153 20.9432C93.6487 20.7538 94.0994 20.6591 94.6676 20.6591C95.4025 20.6591 96.0502 20.8428 96.6108 21.2102C97.1714 21.5777 97.6089 22.0985 97.9233 22.7727C98.2377 23.447 98.3949 24.2424 98.3949 25.1591C98.3949 26.0833 98.2377 26.8845 97.9233 27.5625C97.6089 28.2367 97.1733 28.7595 96.6165 29.1307C96.0597 29.4981 95.4176 29.6818 94.6903 29.6818C94.1297 29.6818 93.6809 29.589 93.3438 29.4034C93.0066 29.214 92.7472 29 92.5653 28.7614C92.3835 28.5189 92.2434 28.3182 92.1449 28.1591H91.9858V29.5H90.6903ZM92.0085 25.1364C92.0085 25.7955 92.1051 26.3769 92.2983 26.8807C92.4915 27.3807 92.7737 27.7727 93.1449 28.0568C93.5161 28.3371 93.9706 28.4773 94.5085 28.4773C95.0691 28.4773 95.5369 28.3295 95.9119 28.0341C96.2907 27.7348 96.5748 27.3333 96.7642 26.8295C96.9574 26.322 97.054 25.7576 97.054 25.1364C97.054 24.5227 96.9593 23.9697 96.7699 23.4773C96.5843 22.9811 96.3021 22.589 95.9233 22.3011C95.5483 22.0095 95.0767 21.8636 94.5085 21.8636C93.9631 21.8636 93.5047 22.0019 93.1335 22.2784C92.7623 22.5511 92.482 22.9337 92.2926 23.4261C92.1032 23.9148 92.0085 24.4848 92.0085 25.1364ZM104.105 29.6818C103.264 29.6818 102.539 29.4962 101.929 29.125C101.323 28.75 100.855 28.2273 100.526 27.5568C100.2 26.8826 100.037 26.0985 100.037 25.2045C100.037 24.3106 100.2 23.5227 100.526 22.8409C100.855 22.1553 101.313 21.6212 101.901 21.2386C102.491 20.8523 103.181 20.6591 103.969 20.6591C104.423 20.6591 104.872 20.7348 105.315 20.8864C105.759 21.0379 106.162 21.2841 106.526 21.625C106.889 21.9621 107.179 22.4091 107.395 22.9659C107.611 23.5227 107.719 24.2083 107.719 25.0227V25.5909H100.991V24.4318H106.355C106.355 23.9394 106.257 23.5 106.06 23.1136C105.866 22.7273 105.59 22.4223 105.23 22.1989C104.874 21.9754 104.454 21.8636 103.969 21.8636C103.435 21.8636 102.973 21.9962 102.582 22.2614C102.196 22.5227 101.899 22.8636 101.69 23.2841C101.482 23.7045 101.378 24.1553 101.378 24.6364V25.4091C101.378 26.0682 101.491 26.6269 101.719 27.0852C101.95 27.5398 102.27 27.8864 102.679 28.125C103.088 28.3598 103.563 28.4773 104.105 28.4773C104.457 28.4773 104.776 28.428 105.06 28.3295C105.348 28.2273 105.596 28.0758 105.804 27.875C106.012 27.6705 106.173 27.4167 106.287 27.1136L107.582 27.4773C107.446 27.9167 107.217 28.303 106.895 28.6364C106.573 28.9659 106.175 29.2235 105.702 29.4091C105.228 29.5909 104.696 29.6818 104.105 29.6818ZM109.759 29.5V20.7727H111.099V29.5H109.759ZM110.44 19.3182C110.179 19.3182 109.954 19.2292 109.764 19.0511C109.579 18.8731 109.486 18.6591 109.486 18.4091C109.486 18.1591 109.579 17.9451 109.764 17.767C109.954 17.589 110.179 17.5 110.44 17.5C110.702 17.5 110.925 17.589 111.111 17.767C111.3 17.9451 111.395 18.1591 111.395 18.4091C111.395 18.6591 111.3 18.8731 111.111 19.0511C110.925 19.2292 110.702 19.3182 110.44 19.3182ZM114.896 24.25V29.5H113.555V20.7727H114.851V22.1364H114.964C115.169 21.6932 115.48 21.3371 115.896 21.0682C116.313 20.7955 116.851 20.6591 117.51 20.6591C118.101 20.6591 118.618 20.7803 119.061 21.0227C119.504 21.2614 119.849 21.625 120.095 22.1136C120.341 22.5985 120.464 23.2121 120.464 23.9545V29.5H119.124V24.0455C119.124 23.3598 118.946 22.8258 118.589 22.4432C118.233 22.0568 117.745 21.8636 117.124 21.8636C116.696 21.8636 116.313 21.9564 115.976 22.142C115.643 22.3277 115.379 22.5985 115.186 22.9545C114.993 23.3106 114.896 23.7424 114.896 24.25ZM126.438 32.9545C125.79 32.9545 125.233 32.8712 124.767 32.7045C124.301 32.5417 123.913 32.3258 123.602 32.0568C123.295 31.7917 123.051 31.5076 122.869 31.2045L123.938 30.4545C124.059 30.6136 124.212 30.7955 124.398 31C124.583 31.2083 124.837 31.3883 125.159 31.5398C125.485 31.6951 125.911 31.7727 126.438 31.7727C127.142 31.7727 127.723 31.6023 128.182 31.2614C128.64 30.9205 128.869 30.3864 128.869 29.6591V27.8864H128.756C128.657 28.0455 128.517 28.2424 128.335 28.4773C128.157 28.7083 127.9 28.9148 127.562 29.0966C127.229 29.2746 126.778 29.3636 126.21 29.3636C125.506 29.3636 124.873 29.197 124.312 28.8636C123.756 28.5303 123.314 28.0455 122.989 27.4091C122.667 26.7727 122.506 26 122.506 25.0909C122.506 24.197 122.663 23.4186 122.977 22.7557C123.292 22.089 123.729 21.5739 124.29 21.2102C124.85 20.8428 125.498 20.6591 126.233 20.6591C126.801 20.6591 127.252 20.7538 127.585 20.9432C127.922 21.1288 128.18 21.3409 128.358 21.5795C128.54 21.8144 128.68 22.0076 128.778 22.1591H128.915V20.7727H130.21V29.75C130.21 30.5 130.04 31.1098 129.699 31.5795C129.362 32.053 128.907 32.3996 128.335 32.6193C127.767 32.8428 127.134 32.9545 126.438 32.9545ZM126.392 28.1591C126.93 28.1591 127.384 28.036 127.756 27.7898C128.127 27.5436 128.409 27.1894 128.602 26.7273C128.795 26.2652 128.892 25.7121 128.892 25.0682C128.892 24.4394 128.797 23.8845 128.608 23.4034C128.419 22.9223 128.138 22.5455 127.767 22.2727C127.396 22 126.938 21.8636 126.392 21.8636C125.824 21.8636 125.35 22.0076 124.972 22.2955C124.597 22.5833 124.314 22.9697 124.125 23.4545C123.939 23.9394 123.847 24.4773 123.847 25.0682C123.847 25.6742 123.941 26.2102 124.131 26.6761C124.324 27.1383 124.608 27.5019 124.983 27.767C125.362 28.0284 125.831 28.1591 126.392 28.1591ZM137.347 17.8636H139.028L142.983 27.5227H143.119L147.074 17.8636H148.756V29.5H147.438V20.6591H147.324L143.688 29.5H142.415L138.778 20.6591H138.665V29.5H137.347V17.8636ZM155.058 29.6818C154.217 29.6818 153.492 29.4962 152.882 29.125C152.276 28.75 151.808 28.2273 151.479 27.5568C151.153 26.8826 150.99 26.0985 150.99 25.2045C150.99 24.3106 151.153 23.5227 151.479 22.8409C151.808 22.1553 152.267 21.6212 152.854 21.2386C153.445 20.8523 154.134 20.6591 154.922 20.6591C155.376 20.6591 155.825 20.7348 156.268 20.8864C156.712 21.0379 157.115 21.2841 157.479 21.625C157.842 21.9621 158.132 22.4091 158.348 22.9659C158.564 23.5227 158.672 24.2083 158.672 25.0227V25.5909H151.945V24.4318H157.308C157.308 23.9394 157.21 23.5 157.013 23.1136C156.82 22.7273 156.543 22.4223 156.183 22.1989C155.827 21.9754 155.407 21.8636 154.922 21.8636C154.388 21.8636 153.926 21.9962 153.536 22.2614C153.149 22.5227 152.852 22.8636 152.643 23.2841C152.435 23.7045 152.331 24.1553 152.331 24.6364V25.4091C152.331 26.0682 152.445 26.6269 152.672 27.0852C152.903 27.5398 153.223 27.8864 153.632 28.125C154.041 28.3598 154.517 28.4773 155.058 28.4773C155.411 28.4773 155.729 28.428 156.013 28.3295C156.301 28.2273 156.549 28.0758 156.757 27.875C156.965 27.6705 157.126 27.4167 157.24 27.1136L158.536 27.4773C158.399 27.9167 158.17 28.303 157.848 28.6364C157.526 28.9659 157.128 29.2235 156.655 29.4091C156.181 29.5909 155.649 29.6818 155.058 29.6818ZM164.507 20.7727V21.9091H159.984V20.7727H164.507ZM161.303 18.6818H162.643V27C162.643 27.3788 162.698 27.6629 162.808 27.8523C162.922 28.0379 163.066 28.1629 163.24 28.2273C163.418 28.2879 163.606 28.3182 163.803 28.3182C163.95 28.3182 164.071 28.3106 164.166 28.2955C164.261 28.2765 164.337 28.2614 164.393 28.25L164.666 29.4545C164.575 29.4886 164.448 29.5227 164.286 29.5568C164.123 29.5947 163.916 29.6136 163.666 29.6136C163.287 29.6136 162.916 29.5322 162.553 29.3693C162.193 29.2064 161.893 28.9583 161.655 28.625C161.42 28.2917 161.303 27.8712 161.303 27.3636V18.6818ZM166.524 29.5V20.7727H167.82V22.0909H167.911C168.07 21.6591 168.357 21.3087 168.774 21.0398C169.191 20.7708 169.661 20.6364 170.183 20.6364C170.282 20.6364 170.405 20.6383 170.553 20.642C170.7 20.6458 170.812 20.6515 170.888 20.6591V22.0227C170.842 22.0114 170.738 21.9943 170.575 21.9716C170.416 21.9451 170.248 21.9318 170.07 21.9318C169.645 21.9318 169.267 22.0208 168.933 22.1989C168.604 22.3731 168.342 22.6155 168.149 22.9261C167.96 23.233 167.865 23.5833 167.865 23.9773V29.5H166.524ZM172.477 29.5V20.7727H173.818V29.5H172.477ZM173.159 19.3182C172.898 19.3182 172.672 19.2292 172.483 19.0511C172.297 18.8731 172.205 18.6591 172.205 18.4091C172.205 18.1591 172.297 17.9451 172.483 17.767C172.672 17.589 172.898 17.5 173.159 17.5C173.42 17.5 173.644 17.589 173.83 17.767C174.019 17.9451 174.114 18.1591 174.114 18.4091C174.114 18.6591 174.019 18.8731 173.83 19.0511C173.644 19.2292 173.42 19.3182 173.159 19.3182ZM179.82 29.6818C179.001 29.6818 178.297 29.4886 177.706 29.1023C177.115 28.7159 176.661 28.1837 176.342 27.5057C176.024 26.8277 175.865 26.053 175.865 25.1818C175.865 24.2955 176.028 23.5133 176.354 22.8352C176.683 22.1534 177.142 21.6212 177.729 21.2386C178.32 20.8523 179.009 20.6591 179.797 20.6591C180.411 20.6591 180.964 20.7727 181.456 21C181.948 21.2273 182.352 21.5455 182.666 21.9545C182.981 22.3636 183.176 22.8409 183.251 23.3864H181.911C181.808 22.9886 181.581 22.6364 181.229 22.3295C180.88 22.0189 180.411 21.8636 179.82 21.8636C179.297 21.8636 178.839 22 178.445 22.2727C178.054 22.5417 177.75 22.9223 177.53 23.4148C177.314 23.9034 177.206 24.4773 177.206 25.1364C177.206 25.8106 177.312 26.3977 177.524 26.8977C177.74 27.3977 178.043 27.786 178.433 28.0625C178.827 28.339 179.289 28.4773 179.82 28.4773C180.168 28.4773 180.484 28.4167 180.768 28.2955C181.053 28.1742 181.293 28 181.49 27.7727C181.687 27.5455 181.827 27.2727 181.911 26.9545H183.251C183.176 27.4697 182.988 27.9337 182.689 28.3466C182.393 28.7557 182.001 29.0814 181.513 29.3239C181.028 29.5625 180.464 29.6818 179.82 29.6818ZM191.393 22.7273L190.189 23.0682C190.113 22.8674 190.001 22.6723 189.854 22.483C189.71 22.2898 189.513 22.1307 189.263 22.0057C189.013 21.8807 188.693 21.8182 188.303 21.8182C187.768 21.8182 187.323 21.9413 186.967 22.1875C186.615 22.4299 186.439 22.7386 186.439 23.1136C186.439 23.447 186.56 23.7102 186.803 23.9034C187.045 24.0966 187.424 24.2576 187.939 24.3864L189.234 24.7045C190.015 24.8939 190.596 25.1837 190.979 25.5739C191.361 25.9602 191.553 26.4583 191.553 27.0682C191.553 27.5682 191.409 28.0152 191.121 28.4091C190.837 28.803 190.439 29.1136 189.928 29.3409C189.416 29.5682 188.821 29.6818 188.143 29.6818C187.253 29.6818 186.517 29.4886 185.933 29.1023C185.35 28.7159 184.981 28.1515 184.825 27.4091L186.098 27.0909C186.219 27.5606 186.448 27.9129 186.786 28.1477C187.126 28.3826 187.571 28.5 188.121 28.5C188.746 28.5 189.242 28.3674 189.609 28.1023C189.981 27.8333 190.166 27.5114 190.166 27.1364C190.166 26.8333 190.06 26.5795 189.848 26.375C189.636 26.1667 189.31 26.0114 188.871 25.9091L187.416 25.5682C186.617 25.3788 186.03 25.0852 185.655 24.6875C185.284 24.286 185.098 23.7841 185.098 23.1818C185.098 22.6894 185.236 22.2538 185.513 21.875C185.793 21.4962 186.174 21.1989 186.655 20.983C187.14 20.767 187.689 20.6591 188.303 20.6591C189.166 20.6591 189.844 20.8485 190.337 21.2273C190.833 21.6061 191.185 22.1061 191.393 22.7273Z" fill="black"/>
</g>
<defs>
<filter id="filter0_d_7_47" x="0" y="0" width="222" height="56" filterUnits="userSpaceOnUse" color-interpolation-filters="sRGB">
<feFlood flood-opacity="0" result="BackgroundImageFix"/>
<feColorMatrix in="SourceAlpha" type="matrix" values="0 0 0 0 0 0 0 0 0 0 0 0 0 0 0 0 0 0 127 0" result="hardAlpha"/>
<feOffset dy="4"/>
<feGaussianBlur stdDeviation="2"/>
<feComposite in2="hardAlpha" operator="out"/>
<feColorMatrix type="matrix" values="0 0 0 0 0 0 0 0 0 0 0 0 0 0 0 0 0 0 0.25 0"/>
<feBlend mode="normal" in2="BackgroundImageFix" result="effect1_dropShadow_7_47"/>
<feBlend mode="normal" in="SourceGraphic" in2="effect1_dropShadow_7_47" result="shape"/>
</filter>
</defs>
</svg>
